<?xml version="1.0" encoding="UTF-8"?><svg id="a" xmlns="http://www.w3.org/2000/svg" viewBox="0 0 205 199"><g id="b"><path id="c" d="m119.43,194.32h0c-1.01.13-1.72,1.06-1.59,2.06.13,1.01,1.06,1.72,2.06,1.59,1.01-.13,1.72-1.05,1.59-2.06-.13-1.01-1.06-1.72-2.06-1.59" fill="#d9291c" fill-rule="evenodd"/><path id="d" d="m112.23,194.99h0c-1.02.06-1.79.93-1.73,1.95.06,1.02.93,1.79,1.95,1.73,1.01-.06,1.79-.93,1.73-1.95-.06-1.02-.93-1.79-1.95-1.73Z" fill="#d9291c" fill-rule="evenodd"/><path id="e" d="m126.57,193.13h0c-1,.2-1.64,1.18-1.43,2.17s1.18,1.64,2.17,1.43c1-.2,1.64-1.18,1.43-2.17-.21-1-1.18-1.64-2.17-1.43" fill="#d9291c" fill-rule="evenodd"/><path id="f" d="m104.99,195.15h0c-1.02-.01-1.85.8-1.87,1.82s.8,1.85,1.82,1.87c1.02.01,1.85-.8,1.87-1.82.01-1.02-.8-1.85-1.82-1.87Z" fill="#d9291c" fill-rule="evenodd"/><path id="g" d="m133.59,191.41h0c-.98.28-1.55,1.3-1.27,2.28.28.98,1.3,1.55,2.28,1.27.98-.28,1.55-1.3,1.27-2.27-.28-.98-1.3-1.55-2.28-1.27" fill="#d9291c" fill-rule="evenodd"/><path id="h" d="m97.73,194.84h0c-1.02-.06-1.89.71-1.96,1.72-.06,1.02.71,1.89,1.72,1.96,1.02.06,1.89-.71,1.96-1.72.06-1.02-.71-1.89-1.72-1.96Z" fill="#d9291c" fill-rule="evenodd"/><path id="i" d="m140.46,189.16h0c-.95.35-1.44,1.41-1.09,2.37s1.41,1.44,2.37,1.09c.95-.35,1.44-1.41,1.09-2.37-.35-.95-1.41-1.44-2.37-1.09" fill="#d9291c" fill-rule="evenodd"/><path id="j" d="m90.46,194.22h0c-1.01-.11-1.92.62-2.03,1.63-.11,1.01.62,1.92,1.63,2.03h0c1.01.11,1.92-.62,2.03-1.63.11-1.01-.62-1.92-1.63-2.03Z" fill="#d9291c" fill-rule="evenodd"/><path id="k" d="m147.14,186.4h0c-.92.43-1.33,1.52-.9,2.44.43.92,1.52,1.33,2.44.9.92-.43,1.33-1.52.9-2.44,0,0,0,0,0,0-.43-.92-1.52-1.32-2.44-.9Z" fill="#d9291c" fill-rule="evenodd"/><path id="l" d="m83.25,193.27h0c-1.01-.16-1.95.53-2.11,1.54-.16,1.01.53,1.95,1.54,2.1h0c1.01.16,1.95-.53,2.11-1.54.16-1.01-.53-1.95-1.54-2.1h0" fill="#d9291c" fill-rule="evenodd"/><path id="m" d="m76.09,191.96h0c-1-.21-1.97.43-2.18,1.42-.21,1,.43,1.97,1.42,2.18h0c1,.21,1.97-.43,2.18-1.42s-.43-1.97-1.42-2.18h0" fill="#d9291c" fill-rule="evenodd"/><path id="n" d="m153.58,183.13h0c-.89.5-1.21,1.62-.71,2.51.5.89,1.62,1.21,2.51.71h0c.89-.5,1.21-1.62.71-2.51s-1.62-1.21-2.51-.71h0" fill="#d9291c" fill-rule="evenodd"/><path id="o" d="m101.1,9.29c50.13,2.22,96.62,43.88,94.48,93.12-2.33,53.72-43.76,89.1-93.12,87.29-60.86-2.24-94-35.92-93.11-87.3C10.26,49.85,50.81,7.07,101.1,9.3" fill="#d9291c" fill-rule="evenodd"/><path id="p" d="m69.03,190.26h0c-.98-.26-1.99.32-2.26,1.3-.26.98.32,1.99,1.3,2.26.98.26,1.99-.32,2.26-1.3.26-.98-.32-1.99-1.3-2.26" fill="#d9291c" fill-rule="evenodd"/><path id="q" d="m159.74,179.37h0c-.85.56-1.08,1.71-.51,2.55s1.71,1.08,2.55.51h0c.85-.56,1.08-1.71.51-2.55s-1.71-1.08-2.55-.51h0" fill="#d9291c" fill-rule="evenodd"/><path id="r" d="m62.09,188.15h0c-.96-.33-2.01.19-2.34,1.15-.33.96.19,2.01,1.15,2.34h0c.96.33,2.01-.19,2.34-1.15.33-.96-.19-2.01-1.15-2.34" fill="#d9291c" fill-rule="evenodd"/><path id="s" d="m165.59,175.13h0c-.8.63-.94,1.79-.31,2.59.63.8,1.79.94,2.59.31.8-.63.94-1.79.31-2.59-.63-.8-1.79-.94-2.59-.31" fill="#d9291c" fill-rule="evenodd"/><path id="t" d="m55.31,185.6h0c-.94-.39-2.02.05-2.41.99-.39.94.05,2.02.99,2.41.94.39,2.02-.05,2.41-.99.39-.94-.05-2.02-.99-2.41" fill="#d9291c" fill-rule="evenodd"/><path id="u" d="m171.08,170.44h0c-.71.73-.7,1.89.03,2.6.68.66,1.75.71,2.47.1h0c.78-.65.88-1.82.23-2.6-.65-.78-1.82-.88-2.6-.23-.05.04-.09.08-.13.12" fill="#d9291c" fill-rule="evenodd"/><path id="v" d="m48.74,182.58h0c-.91-.46-2.02-.1-2.48.81-.46.91-.1,2.02.81,2.48.91.46,2.02.1,2.47-.81.46-.91.1-2.02-.81-2.48Z" fill="#d9291c" fill-rule="evenodd"/><path id="w" d="m176.17,165.32h0c-.69.75-.64,1.91.11,2.6.75.69,1.91.64,2.6-.11.69-.75.64-1.91-.11-2.6,0,0,0,0,0,0-.75-.69-1.91-.64-2.6.11" fill="#d9291c" fill-rule="evenodd"/><path id="x" d="m42.43,179.07h0c-.87-.53-2-.26-2.53.61-.53.87-.26,2,.61,2.53.87.53,2,.26,2.53-.61.53-.87.26-2-.61-2.53" fill="#d9291c" fill-rule="evenodd"/><path id="y" d="m180.85,159.82h0c-.63.8-.49,1.96.32,2.59.8.63,1.96.49,2.59-.32.63-.8.49-1.96-.31-2.59-.8-.63-1.96-.49-2.59.32" fill="#d9291c" fill-rule="evenodd"/><path id="z" d="m36.43,175.06h0c-.82-.6-1.97-.42-2.57.4s-.42,1.97.4,2.57c.82.6,1.97.42,2.57-.4.6-.82.42-1.97-.4-2.58" fill="#d9291c" fill-rule="evenodd"/><path id="aa" d="m185.07,153.96h0c-.56.85-.33,1.99.52,2.55.85.56,1.99.33,2.55-.52h0c.56-.85.33-1.99-.52-2.55s-1.99-.33-2.55.52h0Z" fill="#d9291c" fill-rule="evenodd"/><path id="ab" d="m30.83,170.54h0c-.76-.67-1.93-.6-2.6.16-.67.76-.6,1.93.16,2.6.76.67,1.93.6,2.6-.16.67-.76.6-1.93-.16-2.6" fill="#d9291c" fill-rule="evenodd"/><path id="ac" d="m188.82,147.79h0c-.49.89-.17,2.01.71,2.5.89.49,2.01.17,2.51-.71h0c.49-.89.17-2.01-.72-2.51-.89-.49-2.01-.17-2.51.72h0" fill="#d9291c" fill-rule="evenodd"/><path id="ad" d="m25.66,165.54h0c-.7-.74-1.86-.78-2.6-.08-.74.7-.78,1.86-.08,2.6h0c.7.74,1.86.78,2.6.08s.78-1.86.08-2.6h0Z" fill="#d9291c" fill-rule="evenodd"/><path id="ae" d="m192.09,141.35h0c-.42.92-.02,2.02.91,2.44.92.42,2.02.02,2.44-.91.42-.92.02-2.02-.9-2.44-.92-.42-2.02-.02-2.44.9" fill="#d9291c" fill-rule="evenodd"/><path id="af" d="m20.98,160.07h0c-.62-.8-1.78-.95-2.58-.33-.8.62-.95,1.78-.33,2.58h0c.62.8,1.78.95,2.58.33.8-.62.95-1.78.33-2.58h0" fill="#d9291c" fill-rule="evenodd"/><path id="ag" d="m194.86,134.67h0c-.35.95.13,2.01,1.09,2.37.95.35,2.01-.13,2.37-1.09.35-.95-.13-2.01-1.09-2.37-.95-.35-2.01.13-2.37,1.09Z" fill="#d9291c" fill-rule="evenodd"/><path id="ah" d="m16.85,154.19h0c-.54-.86-1.68-1.11-2.54-.57-.86.54-1.11,1.68-.57,2.54.54.86,1.68,1.11,2.54.57.86-.54,1.11-1.68.57-2.54Z" fill="#d9291c" fill-rule="evenodd"/><path id="ai" d="m197.12,127.8h0c-.28.98.28,2,1.26,2.28.98.28,2-.28,2.28-1.26h0c.28-.98-.28-2-1.26-2.28-.98-.28-2,.28-2.28,1.26h0" fill="#d9291c" fill-rule="evenodd"/><path id="aj" d="m13.29,147.94h0c-.46-.91-1.57-1.26-2.48-.8-.91.46-1.26,1.57-.8,2.48.46.91,1.57,1.26,2.48.8,0,0,0,0,0,0,.9-.46,1.26-1.57.8-2.48" fill="#d9291c" fill-rule="evenodd"/><path id="ak" d="m198.89,120.78h0c-.18,1,.48,1.96,1.48,2.14.96.17,1.88-.43,2.11-1.37h0c.25-.99-.35-1.99-1.34-2.23-.99-.25-1.99.35-2.23,1.34,0,.04-.02.08-.03.12" fill="#d9291c" fill-rule="evenodd"/><path id="al" d="m10.31,141.38h0c-.38-.94-1.45-1.4-2.4-1.02-.94.38-1.4,1.45-1.02,2.4.38.94,1.45,1.4,2.39,1.02.94-.38,1.4-1.45,1.03-2.4,0,0,0,0,0,0" fill="#d9291c" fill-rule="evenodd"/><path id="am" d="m200.16,113.65h0c-.14,1.01.55,1.94,1.56,2.09,1.01.14,1.94-.55,2.09-1.56.14-1.01-.55-1.94-1.56-2.09-1.01-.14-1.94.55-2.09,1.56" fill="#d9291c" fill-rule="evenodd"/><path id="an" d="m7.92,134.58h0c-.3-.97-1.33-1.52-2.3-1.22-.97.3-1.52,1.33-1.22,2.3.3.97,1.33,1.52,2.3,1.22.97-.3,1.52-1.33,1.22-2.3Z" fill="#d9291c" fill-rule="evenodd"/><path id="ao" d="m200.96,106.45h0c-.08,1.01.68,1.9,1.7,1.98,1.01.08,1.9-.68,1.98-1.7.08-1.01-.68-1.9-1.69-1.98-1.01-.08-1.9.68-1.98,1.7" fill="#d9291c" fill-rule="evenodd"/><path id="ap" d="m6.09,127.6h0c-.22-.99-1.2-1.62-2.2-1.4-.99.22-1.62,1.2-1.4,2.2s1.2,1.62,2.2,1.4c0,0,0,0,0,0,.99-.22,1.62-1.2,1.4-2.2" fill="#d9291c" fill-rule="evenodd"/><path id="aq" d="m201.27,99.23h0c0,1.02.82,1.84,1.84,1.84,1.02,0,1.84-.82,1.84-1.84s-.82-1.84-1.84-1.84h0c-1.02,0-1.84.82-1.84,1.84Z" fill="#d9291c" fill-rule="evenodd"/><path id="ar" d="m4.8,120.48h0c-.16-1-1.11-1.69-2.11-1.53-.98.16-1.66,1.06-1.54,2.04h0c.14,1.01,1.08,1.71,2.08,1.56,1.01-.14,1.71-1.08,1.56-2.08" fill="#d9291c" fill-rule="evenodd"/><path id="as" d="m200.95,92.03h0c.09,1.01.99,1.76,2,1.67,1.01-.09,1.76-.99,1.67-2-.09-1.01-.99-1.76-2-1.67-1.01.09-1.76.99-1.67,2" fill="#d9291c" fill-rule="evenodd"/><path id="at" d="m4.03,113.28h0c-.07-1.01-.96-1.78-1.97-1.7-1.01.07-1.78.96-1.7,1.97.07,1.01.96,1.78,1.97,1.7,0,0,0,0,0,0,1.01-.08,1.77-.96,1.7-1.97" fill="#d9291c" fill-rule="evenodd"/><path id="au" d="m199.99,84.9h0c.18,1,1.14,1.67,2.14,1.48,1-.18,1.67-1.14,1.48-2.14-.18-1-1.14-1.67-2.14-1.48-1,.18-1.67,1.14-1.48,2.14" fill="#d9291c" fill-rule="evenodd"/><path id="av" d="m3.73,106.03h0c-.01-1.02-.84-1.83-1.86-1.82-1.02.01-1.83.84-1.82,1.86.01,1.02.84,1.83,1.86,1.82,1.02-.01,1.83-.84,1.82-1.86" fill="#d9291c" fill-rule="evenodd"/><path id="aw" d="m198.39,77.87h0c.27.98,1.28,1.56,2.26,1.29.98-.27,1.56-1.28,1.29-2.26-.27-.98-1.28-1.56-2.26-1.29-.98.27-1.56,1.28-1.29,2.26Z" fill="#d9291c" fill-rule="evenodd"/><path id="ax" d="m3.88,98.78h0c.05-1.02-.73-1.88-1.74-1.94-1.02-.05-1.88.73-1.94,1.74-.05,1.01.72,1.88,1.74,1.94,1.02.05,1.88-.72,1.94-1.74,0,0,0,0,0,0" fill="#d9291c" fill-rule="evenodd"/><path id="ay" d="m196.19,71h0c.35.95,1.41,1.44,2.36,1.09s1.44-1.41,1.09-2.36c-.35-.95-1.41-1.44-2.36-1.09-.96.35-1.44,1.41-1.09,2.37" fill="#d9291c" fill-rule="evenodd"/><path id="az" d="m4.5,91.56h0c.12-1.01-.6-1.93-1.61-2.05-1.01-.12-1.93.6-2.05,1.61-.12,1.01.6,1.93,1.61,2.05,0,0,0,0,0,0,1.01.12,1.93-.6,2.05-1.61" fill="#d9291c" fill-rule="evenodd"/><path id="ba" d="m193.42,64.34h0c.43.92,1.52,1.32,2.45.9s1.32-1.52.9-2.45h0c-.43-.92-1.52-1.32-2.45-.9s-1.32,1.52-.9,2.45" fill="#d9291c" fill-rule="evenodd"/><path id="bb" d="m5.6,84.4h0c.19-1-.47-1.96-1.47-2.15-1-.19-1.96.47-2.15,1.47h0c-.19,1,.47,1.96,1.47,2.15,1,.19,1.96-.47,2.15-1.47h0Z" fill="#d9291c" fill-rule="evenodd"/><path id="bc" d="m190.12,57.92h0c.5.89,1.62,1.2,2.51.7.89-.5,1.2-1.62.7-2.51-.5-.89-1.62-1.2-2.51-.7-.89.5-1.2,1.62-.7,2.51" fill="#d9291c" fill-rule="evenodd"/><path id="bd" d="m7.18,77.33h0c.26-.98-.34-1.99-1.32-2.25-.98-.26-1.99.34-2.25,1.32h0c-.26.98.34,1.99,1.32,2.25s1.99-.34,2.25-1.32h0" fill="#d9291c" fill-rule="evenodd"/><path id="be" d="m186.34,51.76h0c.57.85,1.71,1.07,2.56.51s1.07-1.71.51-2.56c-.57-.85-1.71-1.07-2.55-.51-.85.57-1.07,1.71-.51,2.56Z" fill="#d9291c" fill-rule="evenodd"/><path id="bf" d="m9.23,70.39h0c.32-.97-.2-2.01-1.17-2.33s-2.01.2-2.33,1.17c-.32.97.2,2.01,1.16,2.33.97.32,2.01-.2,2.33-1.16" fill="#d9291c" fill-rule="evenodd"/><path id="bg" d="m182.09,45.9h0c.63.8,1.78.94,2.59.32.8-.63.94-1.78.32-2.59-.63-.8-1.78-.94-2.58-.32-.8.63-.94,1.78-.32,2.59Z" fill="#d9291c" fill-rule="evenodd"/><path id="bh" d="m11.75,63.6h0c.4-.93-.03-2.02-.96-2.42-.93-.4-2.02.03-2.42.96,0,.02-.02.04-.02.06h0c-.37.95.1,2.02,1.05,2.39.92.36,1.97-.08,2.36-.99Z" fill="#d9291c" fill-rule="evenodd"/><path id="bi" d="m177.44,40.36h0c.68.76,1.85.82,2.6.14.76-.68.82-1.85.14-2.6s-1.85-.82-2.6-.14c0,0,0,0,0,0-.75.68-.82,1.84-.14,2.6" fill="#d9291c" fill-rule="evenodd"/><path id="bj" d="m14.74,57.01h0c.43-.92.04-2.02-.88-2.45-.89-.42-1.96-.06-2.42.82h0c-.47.9-.12,2.01.78,2.48.9.47,2.01.12,2.48-.78.01-.02.02-.04.03-.07" fill="#d9291c" fill-rule="evenodd"/><path id="bk" d="m172.42,35.14h0c.73.71,1.9.69,2.6-.04.71-.73.69-1.9-.04-2.6-.73-.71-1.9-.69-2.6.04-.71.73-.69,1.9.04,2.61" fill="#d9291c" fill-rule="evenodd"/><path id="bl" d="m18.18,50.64h0c.51-.88.22-2.01-.66-2.52-.88-.51-2.01-.22-2.52.66-.51.88-.22,2.01.66,2.52.88.51,2.01.22,2.52-.66" fill="#d9291c" fill-rule="evenodd"/><path id="bm" d="m167.05,30.28h0c.78.66,1.94.56,2.6-.22s.56-1.94-.22-2.6c-.78-.66-1.93-.56-2.59.21-.66.78-.56,1.94.21,2.6,0,0,0,0,0,0" fill="#d9291c" fill-rule="evenodd"/><path id="bn" d="m22.06,44.53h0c.58-.84.36-1.99-.48-2.56-.84-.58-1.99-.36-2.56.48-.57.84-.36,1.98.48,2.56.84.58,1.99.36,2.56-.48" fill="#d9291c" fill-rule="evenodd"/><path id="bo" d="m161.37,25.78h0c.82.61,1.97.43,2.58-.38.61-.82.43-1.97-.38-2.58-.82-.6-1.97-.43-2.58.38-.61.82-.43,1.97.38,2.58" fill="#d9291c" fill-rule="evenodd"/><path id="bp" d="m26.36,38.71h0c.63-.8.5-1.95-.29-2.59-.8-.63-1.95-.5-2.59.29-.63.8-.5,1.95.29,2.59.8.63,1.95.5,2.59-.29" fill="#d9291c" fill-rule="evenodd"/><path id="bq" d="m155.4,21.65h0c.85.55,1.99.31,2.55-.55.55-.85.31-1.99-.55-2.55-.85-.55-1.99-.31-2.55.55-.55.85-.31,2,.55,2.55" fill="#d9291c" fill-rule="evenodd"/><path id="br" d="m31.08,33.23h0c.69-.75.65-1.91-.1-2.6-.75-.69-1.91-.65-2.6.1-.69.75-.65,1.91.1,2.6,0,0,0,0,0,0,.75.69,1.91.64,2.6-.1" fill="#d9291c" fill-rule="evenodd"/><path id="bs" d="m149.2,17.91h0c.89.5,2.01.18,2.51-.71.5-.89.18-2.01-.71-2.51h0c-.89-.5-2.01-.18-2.51.71-.5.89-.18,2.01.71,2.51h0" fill="#d9291c" fill-rule="evenodd"/><path id="bt" d="m36.18,28.11h0c.75-.69.79-1.86.1-2.6-.69-.75-1.86-.79-2.6-.1-.75.69-.79,1.86-.1,2.6,0,0,0,0,0,0,.69.74,1.86.78,2.6.09" fill="#d9291c" fill-rule="evenodd"/><path id="bu" d="m142.76,14.57h0c.92.44,2.02.05,2.46-.87.44-.92.05-2.02-.87-2.46h0c-.92-.44-2.02-.05-2.46.87-.44.92-.05,2.02.87,2.46" fill="#d9291c" fill-rule="evenodd"/><path id="bv" d="m41.66,23.39h0c.8-.64.93-1.79.29-2.59s-1.79-.93-2.59-.29h0c-.8.64-.93,1.79-.29,2.59s1.79.93,2.59.29Z" fill="#d9291c" fill-rule="evenodd"/><path id="bw" d="m136.12,11.66h0c.94.38,2.02-.08,2.39-1.03.38-.94-.08-2.02-1.03-2.39-.94-.38-2.01.08-2.39,1.02-.38.94.08,2.02,1.02,2.4,0,0,0,0,0,0" fill="#d9291c" fill-rule="evenodd"/><path id="bx" d="m47.48,19.11h0c.84-.57,1.06-1.72.49-2.56-.57-.84-1.72-1.06-2.56-.49-.84.57-1.06,1.72-.49,2.56.57.84,1.72,1.06,2.56.49" fill="#d9291c" fill-rule="evenodd"/><path id="by" d="m129.31,9.17h0c.97.32,2.01-.21,2.32-1.18s-.21-2.01-1.18-2.32c-.97-.32-2.01.21-2.32,1.18-.32.97.21,2.01,1.18,2.33" fill="#d9291c" fill-rule="evenodd"/><path id="bz" d="m53.61,15.3h0c.88-.5,1.2-1.63.69-2.51-.5-.88-1.63-1.2-2.51-.69-.88.5-1.2,1.63-.69,2.51,0,0,0,0,0,0,.5.88,1.63,1.19,2.51.69" fill="#d9291c" fill-rule="evenodd"/><path id="ca" d="m122.36,7.14h0c.99.25,1.99-.34,2.24-1.33s-.34-1.99-1.33-2.24h0c-.99-.25-1.99.34-2.24,1.33s.34,1.99,1.33,2.24" fill="#d9291c" fill-rule="evenodd"/><path id="cb" d="m60.03,11.99h0c.92-.43,1.32-1.52.89-2.45-.43-.92-1.52-1.32-2.45-.89h0c-.92.43-1.32,1.53-.89,2.45.43.92,1.53,1.32,2.45.89" fill="#d9291c" fill-rule="evenodd"/><path id="cc" d="m115.28,5.58h0c1,.19,1.96-.47,2.15-1.48.19-1-.47-1.96-1.48-2.15-1-.19-1.96.47-2.15,1.47-.18,1,.48,1.96,1.48,2.15h0Z" fill="#d9291c" fill-rule="evenodd"/><path id="cd" d="m66.69,9.22h0c.95-.35,1.44-1.41,1.09-2.37-.35-.95-1.41-1.44-2.37-1.09-.95.35-1.44,1.41-1.09,2.37.35.95,1.41,1.44,2.37,1.09" fill="#d9291c" fill-rule="evenodd"/><path id="ce" d="m108.12,4.5h0c1.01.12,1.92-.61,2.04-1.62.12-1.01-.61-1.92-1.62-2.04-1.01-.12-1.92.61-2.04,1.62-.12,1.01.61,1.92,1.62,2.04" fill="#d9291c" fill-rule="evenodd"/><path id="cf" d="m73.56,7h0c.98-.27,1.55-1.29,1.28-2.27-.27-.98-1.29-1.55-2.27-1.28-.98.27-1.55,1.29-1.28,2.27.27.98,1.29,1.55,2.27,1.28" fill="#d9291c" fill-rule="evenodd"/><path id="cg" d="m100.91,3.92h0c1.02.04,1.88-.74,1.92-1.76.04-1.02-.74-1.88-1.76-1.92-1.02-.04-1.88.74-1.92,1.76-.04,1.02.74,1.88,1.76,1.92" fill="#d9291c" fill-rule="evenodd"/><path id="ch" d="m94.92,3.85h0c1.02-.02,1.82-.87,1.8-1.88-.02-1.02-.87-1.82-1.88-1.8-1.02.02-1.82.87-1.8,1.88h0c.02,1.02.87,1.82,1.88,1.8Z" fill="#d9291c" fill-rule="evenodd"/><path id="ci" d="m80.58,5.36h0c1-.19,1.66-1.15,1.47-2.15-.19-1-1.15-1.66-2.15-1.47-1,.19-1.66,1.15-1.47,2.15.19,1,1.15,1.66,2.15,1.47" fill="#d9291c" fill-rule="evenodd"/><path id="cj" d="m87.72,4.31h0c1.01-.11,1.74-1.02,1.64-2.03-.11-1.01-1.02-1.74-2.03-1.64-1.01.11-1.74,1.01-1.64,2.02.11,1.01,1.01,1.75,2.02,1.64" fill="#d9291c" fill-rule="evenodd"/><path id="ck" d="m88.9,50.53l43.06,4.85c.4.04.76-.24.8-.64l.37-3.27c.04-.4-.24-.76-.64-.8l-43.06-4.85c-.4-.04-.76.24-.8.64l-.37,3.27c-.04.4.24.76.64.8" fill="#f5eceb"/><path id="cl" d="m90.18,43.35l42.86,4.82c.57.06,1.14-.1,1.6-.44.42-.32.74-.4.87-1.54.49-4.65.64-9.37-1.23-13.43-2.28-4.98-7.29-7.71-12.29-9.1-.62-.17-1.24-.33-1.86-.46-1.87-.41-3.75-.72-5.65-.93-5.84-.67-12.26-.91-17.59,1.98-4.15,2.25-6.5,6.34-7.62,10.68-.92,3.56-1.67,8.14.91,8.43m.91-2.81c.52-3.89,1.27-7.82,3.59-10.82,2.44-3.16,6.42-4.5,10.23-4.89.49-.05.99-.09,1.48-.11.64-.03,1.29-.05,1.93-.05.77,0,1.55.03,2.32.07,1.04.06,2.07.15,3.1.26,5.47.61,11.95,1.59,16.02,5.99,3.3,3.56,3.49,8.7,3.08,13.53-.02.26-.05.53-.07.79l-41.68-4.69v-.08Z" fill="#f5eceb"/><path id="cm" d="m95.14,74.79c8.4.98,16.81,1.88,25.2,2.83,2.56.39,5.18-.05,7.48-1.26,4.79-2.85,7.23-13.46,3.24-13.95-14.3-1.61-28.58-3.37-42.9-4.84-1.19-.06-2.23.78-2.42,1.95-.45,2.63-.44,5.32.04,7.95,1.05,4.32,5.17,6.8,9.37,7.31m-6.68-14.19c0-.05.01-.1.02-.16l41.69,4.7-.02.15c-.32,2.7-.64,5.88-2.77,7.9-1.73,1.64-4.23,1.91-6.72,1.63-8.38-.94-16.79-1.85-25.18-2.83-1.71-.13-3.35-.71-4.77-1.68-2.81-2.13-2.73-5.21-2.25-9.73" fill="#f5eceb"/><path id="cn" d="m88.3,56.16l2.42-1.55c2.08-1.3,3.74,1.6,6.18,1.72,2.53.13,4.21-1.68,5.63-.55,1.52,1.46,3.78,1.85,5.7.99,2.51-1.42,3.89,1.44,6.44,1.56,2.53.13,4.21-1.68,5.63-.55,1.39,1.35,3.41,1.81,5.25,1.21.19-.07.37-.16.54-.27,3.29-1.95,5.42,3.86,6.85,2.26.32-.35.63-.68-.03-1.44l-2.02-2.05c-.72-.72-1.66-1.18-2.67-1.33-1.04-.03-2.07.19-3.01.63-.97.63-2.25.54-3.13-.22-1.15-1.15-2.79-1.65-4.38-1.34-.48.13-.94.32-1.37.56-.97.63-2.25.54-3.13-.22-1.15-1.15-2.79-1.65-4.38-1.34-.48.13-.94.32-1.37.56-.97.63-2.25.54-3.13-.22-1.15-1.15-2.79-1.65-4.38-1.34-.48.13-.94.32-1.37.56-.97.63-2.25.54-3.13-.22-1.56-1.52-3.95-1.82-5.84-.73l-2.43,1.55c-1.28.94.16,2.32,1.14,1.78" fill="#f5eceb"/><path id="co" d="m74.78,125.39l2.6,3.18c.2.23.34.49.43.78.06.31.07.62.02.93-.03.35-.22.67-.52.86-.81.36-1.75.25-2.46-.28-.25-.26-.37-.62-.31-.98l.17-1.48-1.16-.13-.16,1.41c-.17,1.55.67,2.43,2.55,2.64,1.87.21,2.89-.46,3.07-2.01.06-.42.04-.84-.04-1.26-.11-.4-.3-.77-.55-1.1l-2.65-3.19c-.2-.21-.35-.47-.44-.76-.05-.31-.06-.62-.01-.93.02-.35.2-.67.49-.87.77-.36,1.67-.26,2.34.26.24.26.35.62.29.98l-.17,1.48,1.16.13.16-1.41c.17-1.55-.63-2.43-2.41-2.63-.74-.14-1.5,0-2.15.37-.52.39-.85.99-.88,1.64-.06.42-.04.85.05,1.26.12.4.32.77.59,1.08" fill="#f5eceb"/><path id="cp" d="m87.29,122.42h0l-5.48-.61-.11,1,2.16.24-1.1,9.8,1.16.13,1.1-9.8,2.16.24.11-1Z" fill="#f5eceb"/><path id="cq" d="m95.63,129.45l.33-2.91c.14-.8-.08-1.61-.6-2.23-.63-.63-1.48-1.01-2.38-1.04l-3.14-.35-1.52,13.5,1.45.16.54-4.78,1.68.19,1.89,5.05,1.6.18-2-5.27c1.22-.2,2.12-1.26,2.13-2.49m-1.13-3.07l-.33,2.91c-.12,1.11-.8,1.59-2.04,1.45l-1.68-.19.7-6.23,1.68.19c.5.02.97.23,1.32.59.29.36.42.82.34,1.28" fill="#f5eceb"/><path id="cr" d="m105.69,125.96l.14-1.25-5.92-.66-1.52,13.5,6.13.69.14-1.25-4.67-.52.56-4.98,3.63.41.14-1.25-3.63-.41.54-4.78,4.47.5Z" fill="#f5eceb"/><path id="cs" d="m113.91,138.02l-4.67-.52.56-4.98,3.63.41.14-1.25-3.63-.41.54-4.78,4.46.5.14-1.25-5.92-.66-1.52,13.5,6.13.69.14-1.25Z" fill="#f5eceb"/><path id="ct" d="m116.8,127.21l2.7.3-1.38,12.25,1.45.16,1.38-12.25,2.7.3.14-1.25-6.85-.77-.14,1.25Z" fill="#f5eceb"/><rect id="cu" x="78.45" y="127.1" width="1.04" height="14.84" transform="translate(-63.52 198) rotate(-83.6)" fill="#f5eceb"/><path id="cv" d="m63.55,89.71c.06.5.09.78.15,1.27.33.88.52,1.8.57,2.73l.5,4.25q.03.25.06.5c.1.5.07,1.03-.07,1.52q.03.25.06.5c.22.82.32,1.66.3,2.51.37.99.27,2.26.63,3.23l.03.25c-.19.56.12,1.02.18,1.49q.03.25.06.5c.28.45.8.7,1.33.63.94-.07,1.87-.26,2.76-.58.46-.05.74.16,1.24-.15,1.12-.52,1.99-1.45,2.46-2.59.28-.56.31-1.22.07-1.8l-.03-.25c.44-.52.13-1.02.07-1.52.19-.49-.15-1.24-.21-1.77.11-.68-.07-1.37-.48-1.92-.03-.28-.07-.56-.59-.5l-.02-.22c.19-.52-.06-.5-.34-1-.56-.19-.59-.43-.12-.99.22-.02.18-.3.41-.55.47-.56.1-1.55.26-2.33.15-.49.17-1.01.07-1.52-.15-.93-.43-1.84-.82-2.7-.36-.64-.86-1.18-1.48-1.59q-.22.02-.49-.19c-.43-.26-.88-.47-1.36-.63-.31-.21-.8-.16-.77.09l-1.24.15c-.03-.25-.28-.22-.53-.19-.5.06-1.24.4-1.96.48-.32.09-.58.32-.71.62.03.25.08.71.12.99.12.42.08.87-.1,1.27m7.23,9.55c.16.41.29.82.4,1.24-.22.25.06.5.09.74.05.46.12.99.18,1.49.07.69-.02,1.39-.26,2.04,0,0,.03.28-.21.31-.53.06-.96.36-1.71.45-.69-.08-1.21-.67-1.2-1.37-.03-.25-.06-.5-.06-.5-.13-.76-.14-1.53-.02-2.29l-.03-.28c-.3-.44-.15-1.24-.2-1.74-.03-.22-.06-.5.19-.53.32-.47.92-.65,1.46-.45.58.05,1.09.38,1.39.87m-4.04-8.39c-.12-1.02.57-1.86,1.59-1.48,1.05.13,1.36.59,1.48,1.59.28.64.45,1.32.49,2.02.02.61-.08,1.22-.29,1.8-.19.53-.96.62-1.43.67l-.28.03c-.5.06-.74.09-1.02-.13q-.03-.25-.31-.47c-.09-.74-.2-1.74-.3-2.51-.1-.5-.08-1.03.07-1.52" fill="#f5eceb"/><path id="cw" d="m77.16,91.89v.31c.22.57.33,1.17.33,1.77,0,0,.01.31.02.53-.18.78-.23,1.58-.16,2.38,0,.22.27.52.28.77.14.09.19.27.1.41-.02.03-.05.06-.08.09-.24.41-.22.92.05,1.31v.28c-.23.29-.22.54.04.75q.01.31.02.56c-.38,1.98.29,4.02,1.76,5.4.28-.01.57.29.83.53.93.7,2.19.74,3.16.1,1.58-.28,2-1.6,3.02-2.95,0,0,0-.25-.02-.56.19-1.55.22-3.11.11-4.66l-.25-6.83c-.3-.52-.32-1.02-.05-1.25-.02-.56-.04-1.06-.06-1.59-.01-.28-.03-.81-.03-.81,0-.25-.02-.53-.03-.84-.02-.47-.11-1.18-.12-1.68,0-.16-.03-.72-.07-1.12.05-1,.16-2,.33-2.98h.03c.16-.48.41-.94.73-1.34.47-.45,1.07-.74,1.72-.81h.19c.35.01,1.14.33,1.32.32l.19.18c.18.52.58.51,1.09.68.13.11.32.1.44-.02.33-.36.85-.56,1.02-1.1-.05-.44-.03-.78-.22-.96l-.55-.51c-.22-.15-.55-.54-.96-.53-.59-.41-1.28-.64-1.99-.68h-.09c-.22-.02-.44-.02-.66,0-.74.02-1.46.18-2.14.48-.97.38-1.78,1.1-2.27,2.02-.03.04-.06.08-.09.13-.02.06-.05.11-.09.16-.41,1.13-.65,2.32-.71,3.52-.01.59.02,1.47.02,2.37-.05.15-.06.31-.05.47l.12,3.37c.23.3.02.56.03.81.12,3.37.24,6.49.36,9.89l.02.56c.08.88.01,1.77-.19,2.63,0,.22-.24.23-.24.23-.31.01-.55.33-.76.59h-.28c-.42-.22-.87-.39-1.33-.5l-.26-.21c-.02-.56-.35-1.02-.37-1.58-.03-.78-.06-1.59-.08-2.34-.04-1.06.24-2.1-.1-2.87-.01-.28-.02-.5-.02-.5.12-1.05.08-2.11-.11-3.15.12-.87.09-1.76-.1-2.62-.02-.5.27-1.04.25-1.67-.32-.18-.34-.71-.36-1.2-.02-.53-.04-1.06-.06-1.56-.02-.59-.25-.77-.79-1.03l-.5.02c-.81.03-1.33.33-1.29,1.36-.1.78-.07,1.57.08,2.34,0,0-.25,0-.24.2.16.97.2,1.95.11,2.93" fill="#f5eceb"/><path id="cx" d="m107.36,111.84c-.23-.54-.75-.66-1.14-.99-.24-.2-.38.01-.38.01-.54.19-.92.24-1.04.77l-.2.21c-.19.02-.96.42-1.24.47-.06,0-.13,0-.19.02-.65-.03-1.27-.27-1.78-.68-.35-.36-.65-.76-.88-1.2-.73-1.97-1.29-3.99-1.69-6.05-.23-.83-.36-1.69-.38-2.55-.44-1.23-.72-2.52-.82-3.82-.27-.26-.26-.54.02-.53.21-.52.23-1.02.74-1.22h.31c.3-.97.59-1.99.88-2.76v-.22q.02-.31.04-.53c.29-.24.3-.49.04-.78q.01-.22.3-.45l.05-1.03c-.25-.73-.21-1.51-.43-2.08-.19-.83-.69-1.56-1.41-2.03-.91-.78-2.07-1.2-3.26-1.18l-2.74-.13c-.31-.02-.54.19-1.11.45-.19.31-.28.66-.27,1.02-.02.5.17.98-.06,1.22l-.86,18.53c-.01.48.28.9.73,1.07,1.23.56,1.72.08,2.04-.94.01-.28.02-.5.02-.5-.27-.39-.24-.91.06-1.28l.03-.72c.05-1.03-.2-1.85-.15-2.85.01-.22.3-.49.33-.98-.26-.51.04-.75.06-1.25.24-.52.25-.74.81-.71.5.02.77.25.76.5.45.59.67,1.32.62,2.06-.05.28.03.57.21.79.23.48.2,1.04.48,1.8.03.42.08.84.16,1.26.02.31.08.62.18.92.45,2.17,1.07,4.3,1.86,6.37.45.99.85,1.26.85,1.23.53.73,1.28,1.28,2.15,1.57.69.24,1.42.34,2.14.29.22-.02.44-.04.63-.06t.06-.03h.06c.69-.12,1.34-.43,1.86-.91.37-.07.71-.28.93-.58.15-.19.32-.37.49-.54.13-.3.17-.63.11-.95Zm-10.32-18.14c-.2.52-.59.95-1.09,1.2-.57.46-1.36.54-2.01.19-.27-.29-.55-.31-.74-.82l.03-.75c.15-.82.19-1.67.12-2.5-.28-.01.01-.28.03-.59l.03-.75c-.26-.48.25-.74.56-1.23h.28c.88-.48,1.99-.18,2.49.7.12.21.2.44.23.69-.02.53.19,1.35.17,1.82l-.09,2.03Z" fill="#f5eceb"/><path id="cy" d="m103.77,107.78c.18.28.43.31.65.59.73.64,1.65,1.03,2.62,1.11,1.57.11,3.07-.68,3.86-2.04.5-.81.8-1.74.86-2.69l.83-6.25c-.12-.77-.61-1.09-1.39-1.19-.74-.1-1.49.05-2.23-.05-.49-.32-.8.11-1.12.61-.03.25-.07.53-.07.53-.13.52.09,1.06.55,1.33.72.23,1.18.94,1.1,1.69-.06.46-.16,1.21-.23,1.73.04.85-.16,1.7-.58,2.44-.35.49-1.19.91-1.61.54-.84-.15-1.48-.84-1.57-1.69.07-.53.1-.77.17-1.27-.12-.41-.14-.85-.05-1.27.07-.53.35-.96.42-1.49-.15-.51-.08-1.06.2-1.52.06-.46-.12-.74-.05-1.27.22.03-.28-.04-.25-.29.2.01.39-.07.53-.21q.03-.22.06-.46c-.06-.43,0-.87.17-1.27.07-.42.05-.85-.05-1.27q.03-.25.07-.5c.2-.3.32-.64.35-.99h0c-.04-.72.25-1.42.79-1.91.07-.39.42-.68.82-.68.56-.18.77.1,1.3.17.65.54,1,1.36.94,2.2-.03.25-.06.46-.1.71-.04.28.21.31.49.35.25.03.74.35,1.24.16.53.07.78-.18.88-.89.04-.28.1-.77.14-1.05-.14-.32-.17-.68-.08-1.02.03-.25.06-.46-.22-.5-.05,0-.1-.03-.14-.06-.02-.08-.05-.16-.08-.24h0s.03-.25.03-.25c-.23-.48-.5-.94-.83-1.37-1.69-1.8-4.52-1.88-6.32-.19-.25.23-.47.49-.66.78-.31.46-.88,1.17-.48,1.7l-.04.28q-.25.22-.28.47c-.04.28-.07.53-.1.74-.25.9-.37,1.82-.37,2.76l-.03.25c-.39,1.04-.54,2.15-.43,3.25-.07.27-.03.56.11.8.22.25-.24.19-.29.5l-.03.22c-.1.77-.2,1.52-.26,1.98-.2,1.17-.29,2.37-.25,3.56.15.88.49,1.71,1,2.43m6.9-19.71h-.01s.01,0,.01,0" fill="#f5eceb"/><path id="cz" d="m126.06,91.16c.13-.71-.27-1.32-1.31-1.51l-5.5-1c-.51-.11-1.01.21-1.12.72,0,.03-.01.06-.02.09-.04.25-.14.8-.47.99l-.58,3.23c-.06,1.13-.26,2.24-.6,3.32l-.18.98c-.15.6-.19,1.23-.1,1.85-.01.07-.02.13-.02.2-.3.43-.16.97-.52,1.45l-.4,2.21c-.14.8.05,1.31-.32,1.75l-.67,3.72c-.18,1.01.17,1.42,1.19,1.6,2.54.44,5.04,1.11,7.46,2.02.92.35,2.11-2.27.91-2.98s-3.04-.79-4.77-1.32c-.81-.25-1.26-.58-1.34-1.2-.08-.52-.06-1.06.06-1.58l.27-1.51c.09-.68.28-1.34.58-1.96.09-.49.88-.63,1.37-.55l2.27.41c.4,0,.77-.23.93-.59.3-.52.41-1.13.31-1.72,0-.53-.35-1.21-1.43-1.05-.51.09-1.04.09-1.55,0-.78-.2-1.29-.97-1.17-1.77l.68-3.75c.1-.55.36-.73.89-.89.29-.28.71-.39,1.1-.31.8.37,1.67.53,2.55.46.71.13,1.29-.27,1.48-1.35" fill="#f5eceb"/><path id="da" d="m140.84,122.35c.21-.17.25-.55.32-.92-.1-.58-.58-.81-.89-1.22-.19-.25-.37-.07-.37-.07-.57.07-.95.03-1.18.51l-.24.16c-.19-.02-1.03.2-1.32.18-.06-.02-.13-.03-.19-.02-.63-.17-1.18-.54-1.59-1.06-.26-.42-.46-.88-.59-1.36-.27-2.08-.37-4.18-.3-6.27-.04-.86.03-1.73.2-2.57-.15-1.3-.14-2.61.05-3.91-.2-.32-.13-.59.14-.51.32-.46.46-.94,1-1.02l.3.08c.51-.9,1.02-1.82,1.48-2.51l.2-.72c.34-.17.4-.41.21-.75q.06-.21.4-.38l.27-.99c-.08-.77.13-1.52.04-2.13,0-.86-.33-1.68-.92-2.3-.71-.96-1.75-1.63-2.91-1.88l-2.65-.74c-.3-.08-.57.07-1.19.19-.25.25-.42.58-.49.93-.13.48-.05.99-.33,1.17l-5.42,18.55c-.14.51.84.77,1.1.86,1.29.46,1.24.31,1.78-.61.08-.27.54-1.45.71-1.92l.19-.69c.28-.99.23-1.4.5-2.36.21-.43.38-.88.53-1.33.13-.56.2-.72.33-1.2.35-.45.41-.66.95-.51.48.13.69.42.63.66.31.67.36,1.44.15,2.15-.11.26-.1.56.03.82.11.52-.04,1.06.06,1.87-.07.42-.11.84-.12,1.26-.05.31-.06.62-.03.93-.05,2.21.09,4.43.39,6.62.22,1.07.55,1.42.55,1.39.36.83.97,1.54,1.74,2.01.62.39,1.31.65,2.03.76.22.03.44.06.63.08t.07-.01l.06.02c.7.04,1.4-.12,2.01-.48.38.02.75-.11,1.04-.36.19-.15.39-.29.6-.42m-9.02-20.24h0c-.2-.35-.47-.42-.54-.96l.2-.72c.33-.77.55-1.58.67-2.41-.27-.08.08-.27.16-.57l.2-.72c-.15-.53.41-.66.82-1.07l.27.08c.97-.29,1.99.26,2.28,1.23.07.23.09.48.07.72-.14.51-.12,1.36-.24,1.81l-.54,1.95c-.31.46-.79.79-1.33.93-.66.32-1.45.22-2-.27" fill="#f5eceb"/><path id="db" d="m51.08,146.57l-3.22-2.2,2.85-4.19,4.13,2.81c.28.19.65.12.84-.16,0,0,0,0,0,0l.92-1.35c.19-.28.12-.66-.16-.85l-6.21-4.23c-.28-.19-.66-.12-.85.16l-10,14.68c-.19.28-.12.66.16.85l1.58,1.08c.28.19.66.12.85-.16,0,0,0,0,0,0l4.27-6.27,3.22,2.2c.28.19.66.12.84-.16,0,0,0,0,0,0l.92-1.36c.19-.28.12-.66-.16-.85" fill="#f5eceb"/><path id="dc" d="m67.88,145.66l-7.11-3.18c-.31-.13-.66,0-.8.31l-7.25,16.21c-.13.31,0,.66.31.8l7.36,3.29c.31.13.66,0,.8-.31l.67-1.5c.13-.31,0-.66-.31-.8l-5.06-2.26,2.18-4.88,3.81,1.7c.31.13.66,0,.8-.31l.67-1.5c.13-.31,0-.66-.31-.8l-3.81-1.7,2.07-4.62,4.81,2.15c.31.13.66,0,.8-.31l.67-1.5c.13-.31,0-.66-.31-.8" fill="#f5eceb"/><path id="dd" d="m77.35,147.89c-1.3-.46-2.72-.43-4,.09-1.11.57-1.9,1.6-2.17,2.81-.22.73-.31,1.5-.26,2.27.1.76.36,1.49.76,2.15l3.38,5.8c.21.34.35.72.41,1.12.01.44-.05.87-.18,1.29-.08.38-.35.7-.71.86-1.13.26-2.32-.07-3.16-.87-.24-.33-.29-.76-.16-1.14l.65-2.34c.09-.32-.1-.66-.43-.75l-1.84-.51c-.32-.09-.66.1-.75.42l-.62,2.24c-.54,1.95-.31,4.52,3.86,5.66.71.21,1.44.32,2.17.33.63.01,1.25-.11,1.83-.36,1.14-.56,1.96-1.61,2.21-2.85.22-.73.31-1.49.27-2.26-.09-.76-.32-1.5-.69-2.17l-3.47-5.84c-.22-.31-.36-.67-.42-1.05,0-.44.06-.88.2-1.3.08-.39.33-.72.69-.89,1.06-.26,2.18.05,2.95.82.22.34.26.76.13,1.14l-.65,2.34c-.09.32.1.66.43.75l1.84.51c.32.09.66-.1.75-.42l.62-2.24c.41-1.18.27-2.49-.38-3.56-.81-1.06-1.97-1.78-3.27-2.05" fill="#f5eceb"/><path id="de" d="m95.57,151.71l-8.91-1.37c-.16-.02-.32.02-.45.11-.13.1-.22.24-.24.4l-.25,1.62c-.05.33.18.64.51.69l2.91.45-2.36,15.33c-.05.33.18.64.51.69l1.89.29s.06,0,.09,0c.3,0,.55-.22.6-.52l2.36-15.33,2.91.45c.33.05.64-.17.69-.5,0,0,0,0,0,0l.25-1.62c.05-.33-.18-.64-.51-.69" fill="#f5eceb"/><path id="df" d="m105.54,152.48l-4.63-.33c-.34-.02-.63.23-.65.56l-.12,1.64c-.02.34.23.63.56.65h0l.76.05-.94,13.23-.76-.05c-.16-.01-.32.04-.44.15-.12.11-.2.26-.21.42l-.12,1.64c-.02.34.23.63.56.65l4.63.33h.04c.32,0,.58-.25.61-.57l.12-1.64c.02-.34-.23-.63-.56-.65l-.76-.05.94-13.23.76.05c.33.03.62-.22.65-.55,0,0,0-.01,0-.02l.12-1.64c.02-.34-.23-.63-.56-.65" fill="#f5eceb"/><path id="dg" d="m121.89,152.49l-1.91.03c-.28,0-.53.21-.59.48l-2.74,13.08-3.15-12.98c-.06-.28-.31-.48-.6-.47l-1.91.03c-.34,0-.6.28-.6.62,0,.04,0,.09.02.13l4.31,17.69c.07.27.31.46.59.47h.01l2.87-.05c.28,0,.53-.21.59-.48l3.72-17.82c.04-.18,0-.37-.13-.51-.11-.15-.29-.23-.48-.22" fill="#f5eceb"/><path id="dh" d="m132.46,151.26c-.11-.26-.38-.42-.66-.37l-2.83.46c-.28.05-.49.28-.51.56l-1.13,18.17c-.02.34.23.62.57.64.04,0,.09,0,.13,0l1.89-.31c.28-.05.49-.28.51-.56l.23-3.71,4.19-.68,1.39,3.45c.11.26.38.42.66.37l1.89-.31c.33-.05.56-.37.5-.7,0-.04-.02-.09-.04-.13l-6.79-16.89Zm-1.63,11.96l.42-6.68,2.5,6.21-2.92.47Z" fill="#f5eceb"/><path id="di" d="m153.42,163.63l-.5-1.56c-.1-.32-.44-.5-.76-.39,0,0,0,0,0,0l-4.18,1.34-4.74-14.77c-.1-.32-.44-.5-.76-.39,0,0,0,0,0,0l-1.82.58c-.32.1-.5.44-.39.76,0,0,0,0,0,0l5.42,16.91c.08.25.32.42.58.42.06,0,.13,0,.19-.03l6.58-2.11c.32-.1.5-.45.39-.77,0,0,0,0,0,0" fill="#f5eceb"/></g></svg>