<svg xmlns="http://www.w3.org/2000/svg" viewBox="0 0 235.984 20.015">
    <defs>
        <clipPath id="r0p5neq48a">
            <path data-name="Rectangle 3" style="fill:none" d="M0 0h235.984v20.015H0z"/>
        </clipPath>
    </defs>
    <g data-name="Group 4">
        <g data-name="Group 3" style="clip-path:url(#r0p5neq48a)">
            <path data-name="Path 111" d="M216.319 20.015a17.677 17.677 0 0 1-13.738-6.792 7.21 7.21 0 0 0-11.854 0 17.29 17.29 0 0 1-27.477 0 7.21 7.21 0 0 0-11.853 0 17.29 17.29 0 0 1-27.477 0 7.209 7.209 0 0 0-11.853 0 17.29 17.29 0 0 1-27.477 0 7.21 7.21 0 0 0-11.854 0A17.678 17.678 0 0 1 59 20.015a17.676 17.676 0 0 1-13.738-6.792 7.757 7.757 0 0 0-5.927-3.1 7.757 7.757 0 0 0-5.927 3.1 17.676 17.676 0 0 1-13.738 6.792 17.677 17.677 0 0 1-13.743-6.793A7.755 7.755 0 0 0 0 10.118V0a17.676 17.676 0 0 1 13.738 6.792 7.757 7.757 0 0 0 5.927 3.1 7.758 7.758 0 0 0 5.927-3.1 17.29 17.29 0 0 1 27.477 0 7.21 7.21 0 0 0 11.854 0A17.677 17.677 0 0 1 78.661 0 17.676 17.676 0 0 1 92.4 6.792a7.209 7.209 0 0 0 11.853 0A17.678 17.678 0 0 1 117.992 0a17.676 17.676 0 0 1 13.738 6.792 7.21 7.21 0 0 0 11.854 0 17.291 17.291 0 0 1 27.477 0 7.21 7.21 0 0 0 11.854 0 17.29 17.29 0 0 1 27.477 0 7.209 7.209 0 0 0 11.853 0A17.677 17.677 0 0 1 235.984 0v10.118a7.758 7.758 0 0 0-5.927 3.1 17.677 17.677 0 0 1-13.738 6.792" style="fill:#d9291c"/>
        </g>
    </g>
</svg>
