<svg xmlns="http://www.w3.org/2000/svg" width="32.422" height="32.422" viewBox="0 0 32.422 32.422">
    <path d="M19.461 11.142a8.318 8.318 0 1 0 8.319 8.318 8.306 8.306 0 0 0-8.319-8.318zm0 13.728a5.41 5.41 0 1 1 5.41-5.41 5.416 5.416 0 0 1-5.41 5.41zm10.6-14.062a1.945 1.945 0 1 1-1.945-1.945 1.945 1.945 0 0 1 1.942 1.946zm5.5 1.964a9.717 9.717 0 0 0-2.612-6.8 9.686 9.686 0 0 0-6.8-2.612c-2.686-.148-10.708-.148-13.376 0a9.717 9.717 0 0 0-6.8 2.612c-1.908 1.89-2.483 4.206-2.612 6.8-.148 2.686-.148 10.708 0 13.376a9.717 9.717 0 0 0 2.612 6.8 9.717 9.717 0 0 0 6.8 2.612c2.686.148 10.708.148 13.376 0a9.717 9.717 0 0 0 6.8-2.612 9.685 9.685 0 0 0 2.612-6.8c.148-2.686.148-10.69 0-13.376zM32.1 29.021a5.351 5.351 0 0 1-3.079 3.079c-2.131.852-7.207.648-9.56.648s-7.429.185-9.56-.648a5.351 5.351 0 0 1-3.075-3.075c-.852-2.131-.648-7.207-.648-9.56s-.185-7.429.648-9.56A5.351 5.351 0 0 1 9.9 6.826c2.131-.852 7.207-.648 9.56-.648s7.429-.185 9.56.648A5.351 5.351 0 0 1 32.1 9.9c.852 2.131.648 7.207.648 9.56s.2 7.43-.648 9.561z" transform="translate(-3.25 -3.25)" style="fill:#fff"/>
</svg>
