<svg xmlns="http://www.w3.org/2000/svg" viewBox="0 0 15.906 15.905">
  <path id="instagram" d="M11.2,7.122A4.081,4.081,0,1,0,15.284,11.2,4.075,4.075,0,0,0,11.2,7.122Zm0,6.735A2.654,2.654,0,1,1,13.857,11.2,2.657,2.657,0,0,1,11.2,13.857Zm5.2-6.9A.954.954,0,1,1,15.447,6,.954.954,0,0,1,16.4,6.958Zm2.7.963a4.767,4.767,0,0,0-1.282-3.336A4.752,4.752,0,0,0,14.484,3.3c-1.318-.073-5.253-.073-6.562,0A4.767,4.767,0,0,0,4.586,4.586,4.712,4.712,0,0,0,3.3,7.922c-.073,1.318-.073,5.253,0,6.562a4.767,4.767,0,0,0,1.282,3.336A4.767,4.767,0,0,0,7.922,19.1c1.318.073,5.253.073,6.562,0a4.767,4.767,0,0,0,3.336-1.282A4.752,4.752,0,0,0,19.1,14.484c.073-1.318.073-5.244,0-6.562Zm-1.7,7.971A2.625,2.625,0,0,1,15.893,17.4c-1.045.418-3.536.318-4.69.318a17.8,17.8,0,0,1-4.69-.318A2.625,2.625,0,0,1,5,15.893c-.418-1.045-.318-3.536-.318-4.69A17.8,17.8,0,0,1,5,6.513,2.625,2.625,0,0,1,6.513,5c1.045-.418,3.536-.318,4.69-.318A17.8,17.8,0,0,1,15.893,5,2.625,2.625,0,0,1,17.4,6.513c.418,1.045.318,3.536.318,4.69S17.819,14.847,17.4,15.893Z" transform="translate(-3.25 -3.25)" fill="#141414"/>
</svg>
