<svg xmlns="http://www.w3.org/2000/svg" width="29.344" height="23.475" viewBox="0 0 29.344 23.475">
    <path d="M1.774.228A1.1 1.1 0 0 0 .416 1.962l27.143 21.274a1.1 1.1 0 0 0 1.357-1.736l-7.978-6.254a5.172 5.172 0 0 0 .481-.426l.775-.775a1.1 1.1 0 0 0 .11-1.426 5.1 5.1 0 0 0 2.743-1.419l.775-.775a1.1 1.1 0 0 0 0-1.554l-.775-.775a5.93 5.93 0 0 0-1.784-1.224A4.041 4.041 0 0 0 26.4 2.929V1.1A1.1 1.1 0 0 0 25.3 0h-1.831a4.037 4.037 0 0 0-3.934 3.141 5.847 5.847 0 0 0-1.229-1.793l-.774-.785a1.1 1.1 0 0 0-1.554 0l-.779.779a5.1 5.1 0 0 0-1.426 2.742 1.1 1.1 0 0 0-1.426.11l-.775.775a5.094 5.094 0 0 0-1.229 1.972zm10.494 8.226a2.942 2.942 0 0 1 .853-1.926 3.675 3.675 0 0 1 .99 3.37zm4.782 3.75a3.646 3.646 0 0 1 2.811 1.068 3.054 3.054 0 0 1-.752.546zm-9.11 3.659.518.518L3.25 21.59a1.1 1.1 0 0 0 1.55 1.554l5.208-5.2.514.514a5.139 5.139 0 0 0 7.263 0l.023-.023-1.747-1.375a2.934 2.934 0 0 1-3.98-.156l-.463-.468a3.659 3.659 0 0 1 3.081-.449l-4.136-3.26a3.677 3.677 0 0 1-.605 2.049l-.458-.467a2.943 2.943 0 0 1-.715-2.989L6.991 9.907a5.129 5.129 0 0 0 .949 5.956zM23.469 2.2h.731v.734a1.833 1.833 0 0 1-1.834 1.834h-.734v-.739A1.833 1.833 0 0 1 23.469 2.2zm-6.716 4.846a2.933 2.933 0 0 1 0-4.149 3.673 3.673 0 0 1 .468 4.612l-.463-.463zm6.74 2.59a2.933 2.933 0 0 1-4.149 0l-.463-.463a3.666 3.666 0 0 1 4.612.468z" transform="translate(.006 .006)" style="fill:#f19539"/>
</svg>
