<svg data-name="Group 2" xmlns="http://www.w3.org/2000/svg" width="204.904" height="198.659" viewBox="0 0 204.904 198.659">
    <defs>
        <clipPath id="agx6829sea">
            <path data-name="Rectangle 2" style="fill:none" d="M0 0h204.904v198.659H0z"/>
        </clipPath>
    </defs>
    <g data-name="Group 1" style="clip-path:url(#agx6829sea)">
        <path data-name="Path 1" d="M405.26 665.338a1.842 1.842 0 1 0 2.064 1.59 1.843 1.843 0 0 0-2.064-1.59" transform="translate(-285.875 -471.192)" style="fill:#d9291c;fill-rule:evenodd"/>
        <path data-name="Path 2" d="M380.252 667.669a1.842 1.842 0 1 0 1.948 1.731 1.843 1.843 0 0 0-1.948-1.731z" transform="translate(-268.07 -472.852)" style="fill:#d9291c;fill-rule:evenodd"/>
        <path data-name="Path 3" d="M430.031 661.2a1.842 1.842 0 1 0 2.175 1.434 1.843 1.843 0 0 0-2.175-1.434" transform="translate(-303.512 -468.243)" style="fill:#d9291c;fill-rule:evenodd"/>
        <path data-name="Path 4" d="M355.136 668.216a1.842 1.842 0 1 0 1.818 1.866 1.843 1.843 0 0 0-1.818-1.866z" transform="translate(-250.191 -473.241)" style="fill:#d9291c;fill-rule:evenodd"/>
        <path data-name="Path 5" d="M454.424 655.23a1.842 1.842 0 1 0 2.276 1.27 1.843 1.843 0 0 0-2.276-1.268" transform="translate(-320.883 -463.994)" style="fill:#d9291c;fill-rule:evenodd"/>
        <path data-name="Path 6" d="M330 667.169a1.842 1.842 0 1 0 1.721 1.956 1.844 1.844 0 0 0-1.721-1.956z" transform="translate(-232.32 -472.497)" style="fill:#d9291c;fill-rule:evenodd"/>
        <path data-name="Path 7" d="M478.3 647.442a1.842 1.842 0 1 0 2.366 1.09 1.843 1.843 0 0 0-2.366-1.09" transform="translate(-337.883 -458.448)" style="fill:#d9291c;fill-rule:evenodd"/>
        <path data-name="Path 8" d="M304.915 665.024a1.842 1.842 0 0 0-.4 3.663 1.842 1.842 0 0 0 .4-3.663z" transform="translate(-214.501 -470.973)" style="fill:#d9291c;fill-rule:evenodd"/>
        <path data-name="Path 9" d="M501.5 637.849a1.842 1.842 0 1 0 2.443.9 1.843 1.843 0 0 0-2.443-.9z" transform="translate(-354.408 -451.616)" style="fill:#d9291c;fill-rule:evenodd"/>
        <path data-name="Path 10" d="M279.966 661.733a1.842 1.842 0 0 0-.57 3.64 1.842 1.842 0 0 0 .57-3.64" transform="translate(-196.769 -468.634)" style="fill:#d9291c;fill-rule:evenodd"/>
        <path data-name="Path 11" d="M255.22 657.2a1.842 1.842 0 1 0-.76 3.605 1.842 1.842 0 0 0 .759-3.605" transform="translate(-179.177 -465.413)" style="fill:#d9291c;fill-rule:evenodd"/>
        <path data-name="Path 12" d="M523.882 626.484a1.842 1.842 0 0 0 1.8 3.218 1.842 1.842 0 1 0-1.8-3.217" transform="translate(-370.353 -443.521)" style="fill:#d9291c;fill-rule:evenodd"/>
        <path data-name="Path 13" d="M123.6 31.07c50.134 2.223 96.616 43.88 94.484 93.122-2.326 53.717-43.764 89.1-93.122 87.29-60.858-2.238-94-35.918-93.11-87.3.907-52.56 41.453-95.34 91.748-93.11" transform="translate(-22.546 -21.946)" style="fill:#d9291c;fill-rule:evenodd"/>
        <path data-name="Path 14" d="M230.768 651.331a1.842 1.842 0 1 0 1.3 2.26 1.844 1.844 0 0 0-1.3-2.26" transform="translate(-161.787 -461.237)" style="fill:#d9291c;fill-rule:evenodd"/>
        <path data-name="Path 15" d="M545.306 613.4a1.842 1.842 0 0 0 2.043 3.066 1.842 1.842 0 0 0-2.044-3.066" transform="translate(-385.614 -434.199)" style="fill:#d9291c;fill-rule:evenodd"/>
        <path data-name="Path 16" d="M206.718 644.017a1.842 1.842 0 1 0-1.183 3.489 1.842 1.842 0 0 0 1.183-3.489" transform="translate(-144.677 -456.034)" style="fill:#d9291c;fill-rule:evenodd"/>
        <path data-name="Path 17" d="M565.627 598.658a1.842 1.842 0 1 0 2.587.307 1.843 1.843 0 0 0-2.587-.307" transform="translate(-400.089 -423.7)" style="fill:#d9291c;fill-rule:evenodd"/>
        <path data-name="Path 18" d="M183.206 635.159a1.842 1.842 0 1 0 .992 2.409 1.843 1.843 0 0 0-.992-2.409" transform="translate(-127.942 -449.729)" style="fill:#d9291c;fill-rule:evenodd"/>
        <path data-name="Path 19" d="M584.71 582.35a1.842 1.842 0 0 0 2.5 2.7 1.842 1.842 0 1 0-2.5-2.7" transform="translate(-413.683 -412.083)" style="fill:#d9291c;fill-rule:evenodd"/>
        <path data-name="Path 20" d="M160.389 624.664a1.842 1.842 0 1 0 .812 2.476 1.844 1.844 0 0 0-.812-2.476z" transform="translate(-111.696 -442.257)" style="fill:#d9291c;fill-rule:evenodd"/>
        <path data-name="Path 21" d="M602.432 564.573a1.842 1.842 0 1 0 2.6-.108 1.843 1.843 0 0 0-2.6.108" transform="translate(-426.308 -399.419)" style="fill:#d9291c;fill-rule:evenodd"/>
        <path data-name="Path 22" d="M138.454 612.461a1.842 1.842 0 1 0 .613 2.532 1.843 1.843 0 0 0-.613-2.532" transform="translate(-96.071 -433.563)" style="fill:#d9291c;fill-rule:evenodd"/>
        <path data-name="Path 23" d="M618.682 545.44a1.842 1.842 0 1 0 2.586-.315 1.843 1.843 0 0 0-2.586.315" transform="translate(-437.884 -385.789)" style="fill:#d9291c;fill-rule:evenodd"/>
        <path data-name="Path 24" d="M117.6 598.5a1.842 1.842 0 1 0 .4 2.575 1.844 1.844 0 0 0-.4-2.575" transform="translate(-81.213 -423.615)" style="fill:#d9291c;fill-rule:evenodd"/>
        <path data-name="Path 25" d="M633.367 525.079a1.842 1.842 0 0 0 3.071 2.036 1.842 1.842 0 1 0-3.071-2.035z" transform="translate(-448.343 -371.285)" style="fill:#d9291c;fill-rule:evenodd"/>
        <path data-name="Path 26" d="M98.061 582.779a1.842 1.842 0 1 0 .163 2.6 1.843 1.843 0 0 0-.163-2.6" transform="translate(-67.281 -412.407)" style="fill:#d9291c;fill-rule:evenodd"/>
        <path data-name="Path 27" d="M646.409 503.627a1.842 1.842 0 1 0 3.22 1.79 1.842 1.842 0 0 0-3.221-1.79" transform="translate(-457.633 -356.006)" style="fill:#d9291c;fill-rule:evenodd"/>
        <path data-name="Path 28" d="M80.043 565.342a1.842 1.842 0 0 0-2.684 2.525 1.842 1.842 0 0 0 2.683-2.525z" transform="translate(-54.433 -399.974)" style="fill:#d9291c;fill-rule:evenodd"/>
        <path data-name="Path 29" d="M657.754 481.227a1.842 1.842 0 1 0 2.443-.905 1.843 1.843 0 0 0-2.443.905" transform="translate(-465.713 -340.052)" style="fill:#d9291c;fill-rule:evenodd"/>
        <path data-name="Path 30" d="M63.746 546.289a1.842 1.842 0 0 0-2.911 2.259 1.842 1.842 0 0 0 2.911-2.259" transform="translate(-42.81 -386.386)" style="fill:#d9291c;fill-rule:evenodd"/>
        <path data-name="Path 31" d="M667.366 458.028a1.842 1.842 0 1 0 2.368-1.086 1.843 1.843 0 0 0-2.368 1.086z" transform="translate(-472.557 -323.532)" style="fill:#d9291c;fill-rule:evenodd"/>
        <path data-name="Path 32" d="M49.335 525.773a1.842 1.842 0 1 0-.57 2.542 1.843 1.843 0 0 0 .57-2.542z" transform="translate(-32.533 -371.754)" style="fill:#d9291c;fill-rule:evenodd"/>
        <path data-name="Path 33" d="M675.235 434.176a1.842 1.842 0 0 0 3.539 1.026 1.842 1.842 0 0 0-3.539-1.026" transform="translate(-478.16 -306.549)" style="fill:#d9291c;fill-rule:evenodd"/>
        <path data-name="Path 34" d="M36.918 503.987a1.842 1.842 0 1 0-.8 2.478 1.844 1.844 0 0 0 .8-2.478" transform="translate(-23.679 -356.219)" style="fill:#d9291c;fill-rule:evenodd"/>
        <path data-name="Path 35" d="M681.368 409.817a1.842 1.842 0 0 0 3.6.773 1.842 1.842 0 1 0-3.6-.773" transform="translate(-482.526 -289.207)" style="fill:#d9291c;fill-rule:evenodd"/>
        <path data-name="Path 36" d="M26.548 481.15a1.842 1.842 0 1 0-1.024 2.4 1.843 1.843 0 0 0 1.024-2.4" transform="translate(-16.286 -339.939)" style="fill:#d9291c;fill-rule:evenodd"/>
        <path data-name="Path 37" d="M685.79 385.084a1.842 1.842 0 1 0 2.086-1.561 1.844 1.844 0 0 0-2.086 1.561" transform="translate(-485.674 -271.604)" style="fill:#d9291c;fill-rule:evenodd"/>
        <path data-name="Path 38" d="M18.216 457.482a1.842 1.842 0 1 0-1.224 2.3 1.843 1.843 0 0 0 1.224-2.3z" transform="translate(-10.348 -323.072)" style="fill:#d9291c;fill-rule:evenodd"/>
        <path data-name="Path 39" d="M688.546 360.106a1.842 1.842 0 1 0 1.979-1.695 1.843 1.843 0 0 0-1.979 1.695" transform="translate(-487.636 -253.829)" style="fill:#d9291c;fill-rule:evenodd"/>
        <path data-name="Path 40" d="M11.867 433.2a1.842 1.842 0 1 0-1.4 2.195 1.843 1.843 0 0 0 1.4-2.195" transform="translate(-5.825 -305.772)" style="fill:#d9291c;fill-rule:evenodd"/>
        <path data-name="Path 41" d="M689.616 335.019a1.842 1.842 0 1 0 1.844-1.84 1.843 1.843 0 0 0-1.844 1.84z" transform="translate(-488.397 -235.963)" style="fill:#d9291c;fill-rule:evenodd"/>
        <path data-name="Path 42" d="M7.406 408.484a1.842 1.842 0 0 0-3.647.516 1.842 1.842 0 0 0 3.648-.521" transform="translate(-2.649 -288.175)" style="fill:#d9291c;fill-rule:evenodd"/>
        <path data-name="Path 43" d="M688.51 309.962a1.842 1.842 0 1 0 1.671-2 1.843 1.843 0 0 0-1.671 2" transform="translate(-487.609 -218.099)" style="fill:#d9291c;fill-rule:evenodd"/>
        <path data-name="Path 44" d="M4.721 383.5a1.842 1.842 0 1 0-1.7 1.972 1.843 1.843 0 0 0 1.7-1.972" transform="translate(-.738 -270.394)" style="fill:#d9291c;fill-rule:evenodd"/>
        <path data-name="Path 45" d="M685.151 285.105a1.842 1.842 0 1 0 1.485-2.141 1.843 1.843 0 0 0-1.485 2.141" transform="translate(-485.214 -200.379)" style="fill:#d9291c;fill-rule:evenodd"/>
        <path data-name="Path 46" d="M3.684 358.389a1.842 1.842 0 1 0-1.824 1.861 1.844 1.844 0 0 0 1.824-1.861" transform="translate(0 -252.526)" style="fill:#d9291c;fill-rule:evenodd"/>
        <path data-name="Path 47" d="M679.6 260.643a1.842 1.842 0 1 0 1.291-2.263 1.843 1.843 0 0 0-1.291 2.263z" transform="translate(-481.255 -182.942)" style="fill:#d9291c;fill-rule:evenodd"/>
        <path data-name="Path 48" d="M4.2 333.257A1.842 1.842 0 1 0 2.26 335a1.843 1.843 0 0 0 1.94-1.743" transform="translate(-.364 -234.645)" style="fill:#d9291c;fill-rule:evenodd"/>
        <path data-name="Path 49" d="M671.947 236.747a1.842 1.842 0 1 0 1.094-2.365 1.843 1.843 0 0 0-1.094 2.365" transform="translate(-475.803 -165.913)" style="fill:#d9291c;fill-rule:evenodd"/>
        <path data-name="Path 50" d="M6.346 308.22a1.842 1.842 0 1 0-2.046 1.611 1.844 1.844 0 0 0 2.048-1.611" transform="translate(-1.894 -216.827)" style="fill:#d9291c;fill-rule:evenodd"/>
        <path data-name="Path 51" d="M662.32 213.569a1.842 1.842 0 1 0 3.342-1.551 1.842 1.842 0 0 0-3.342 1.551" transform="translate(-468.944 -149.399)" style="fill:#d9291c;fill-rule:evenodd"/>
        <path data-name="Path 52" d="M10.159 283.384a1.842 1.842 0 0 0-3.621-.681 1.842 1.842 0 0 0 3.621.68z" transform="translate(-4.607 -199.151)" style="fill:#d9291c;fill-rule:evenodd"/>
        <path data-name="Path 53" d="M650.854 191.239a1.842 1.842 0 1 0 .7-2.51 1.843 1.843 0 0 0-.7 2.51" transform="translate(-460.777 -133.493)" style="fill:#d9291c;fill-rule:evenodd"/>
        <path data-name="Path 54" d="M15.633 258.861a1.842 1.842 0 0 0-3.567-.924 1.842 1.842 0 1 0 3.567.924" transform="translate(-8.504 -181.698)" style="fill:#d9291c;fill-rule:evenodd"/>
        <path data-name="Path 55" d="M637.69 169.857a1.842 1.842 0 1 0 .507-2.556 1.843 1.843 0 0 0-.507 2.556z" transform="translate(-451.402 -118.265)" style="fill:#d9291c;fill-rule:evenodd"/>
        <path data-name="Path 56" d="M22.759 234.768a1.842 1.842 0 1 0-2.33 1.165 1.843 1.843 0 0 0 2.33-1.165" transform="translate(-13.575 -164.549)" style="fill:#d9291c;fill-rule:evenodd"/>
        <path data-name="Path 57" d="M622.966 149.51a1.842 1.842 0 1 0 .319-2.586 1.843 1.843 0 0 0-.319 2.586z" transform="translate(-440.919 -103.778)" style="fill:#d9291c;fill-rule:evenodd"/>
        <path data-name="Path 58" d="M31.516 211.219a1.842 1.842 0 1 0-3.407-1.4 1.842 1.842 0 0 0 3.407 1.4z" transform="translate(-19.809 -147.787)" style="fill:#d9291c;fill-rule:evenodd"/>
        <path data-name="Path 59" d="M606.821 130.265a1.842 1.842 0 1 0 .136-2.6 1.843 1.843 0 0 0-.136 2.6" transform="translate(-429.425 -90.078)" style="fill:#d9291c;fill-rule:evenodd"/>
        <path data-name="Path 60" d="M41.88 188.334a1.842 1.842 0 0 0-3.3-1.636 1.842 1.842 0 1 0 3.3 1.636" transform="translate(-27.186 -131.497)" style="fill:#d9291c;fill-rule:evenodd"/>
        <path data-name="Path 61" d="M589.378 112.18a1.842 1.842 0 1 0-.042-2.605 1.843 1.843 0 0 0 .042 2.605" transform="translate(-417.01 -77.206)" style="fill:#d9291c;fill-rule:evenodd"/>
        <path data-name="Path 62" d="M53.814 166.229a1.842 1.842 0 1 0-2.521.658 1.843 1.843 0 0 0 2.521-.658" transform="translate(-35.682 -115.762)" style="fill:#d9291c;fill-rule:evenodd"/>
        <path data-name="Path 63" d="M570.756 95.308a1.842 1.842 0 1 0-.214-2.6 1.843 1.843 0 0 0 .214 2.6" transform="translate(-403.757 -65.199)" style="fill:#d9291c;fill-rule:evenodd"/>
        <path data-name="Path 64" d="M67.279 145.023a1.842 1.842 0 1 0-2.562.477 1.844 1.844 0 0 0 2.562-.477" transform="translate(-45.268 -100.665)" style="fill:#d9291c;fill-rule:evenodd"/>
        <path data-name="Path 65" d="M551.064 79.693a1.842 1.842 0 1 0-.383-2.578 1.844 1.844 0 0 0 .383 2.578" transform="translate(-389.745 -54.087)" style="fill:#d9291c;fill-rule:evenodd"/>
        <path data-name="Path 66" d="M82.225 124.836a1.842 1.842 0 1 0-2.589.291 1.843 1.843 0 0 0 2.589-.291" transform="translate(-55.909 -86.293)" style="fill:#d9291c;fill-rule:evenodd"/>
        <path data-name="Path 67" d="M530.4 65.381a1.842 1.842 0 1 0-.547-2.548 1.843 1.843 0 0 0 .547 2.548" transform="translate(-375.044 -43.903)" style="fill:#d9291c;fill-rule:evenodd"/>
        <path data-name="Path 68" d="M98.6 105.791a1.842 1.842 0 1 0-2.6.1 1.844 1.844 0 0 0 2.6-.1" transform="translate(-67.566 -72.732)" style="fill:#d9291c;fill-rule:evenodd"/>
        <path data-name="Path 69" d="M508.87 52.418a1.842 1.842 0 0 0 1.8-3.216 1.842 1.842 0 0 0-1.8 3.216" transform="translate(-359.722 -34.68)" style="fill:#d9291c;fill-rule:evenodd"/>
        <path data-name="Path 70" d="M116.331 88.011a1.843 1.843 0 1 0-2.6-.094 1.843 1.843 0 0 0 2.6.094" transform="translate(-80.194 -60.071)" style="fill:#d9291c;fill-rule:evenodd"/>
        <path data-name="Path 71" d="M486.554 40.853a1.842 1.842 0 0 0 1.59-3.324 1.842 1.842 0 1 0-1.59 3.324" transform="translate(-343.844 -26.451)" style="fill:#d9291c;fill-rule:evenodd"/>
        <path data-name="Path 72" d="M135.352 71.62a1.842 1.842 0 0 0-2.3-2.881 1.842 1.842 0 1 0 2.3 2.881z" transform="translate(-93.74 -48.397)" style="fill:#d9291c;fill-rule:evenodd"/>
        <path data-name="Path 73" d="M463.546 30.738a1.842 1.842 0 1 0-1.023-2.4 1.843 1.843 0 0 0 1.023 2.4" transform="translate(-327.472 -19.253)" style="fill:#d9291c;fill-rule:evenodd"/>
        <path data-name="Path 74" d="M155.574 56.74a1.842 1.842 0 1 0-2.559-.492 1.844 1.844 0 0 0 2.559.492" transform="translate(-108.143 -37.799)" style="fill:#d9291c;fill-rule:evenodd"/>
        <path data-name="Path 75" d="M439.935 22.127a1.842 1.842 0 1 0-1.176-2.325 1.843 1.843 0 0 0 1.176 2.325" transform="translate(-310.671 -13.126)" style="fill:#d9291c;fill-rule:evenodd"/>
        <path data-name="Path 76" d="M176.9 43.494a1.842 1.842 0 1 0-2.511-.693 1.843 1.843 0 0 0 2.511.693" transform="translate(-123.333 -28.363)" style="fill:#d9291c;fill-rule:evenodd"/>
        <path data-name="Path 77" d="M415.814 15.079a1.842 1.842 0 0 0 .916-3.569 1.842 1.842 0 1 0-.916 3.569" transform="translate(-293.505 -8.111)" style="fill:#d9291c;fill-rule:evenodd"/>
        <path data-name="Path 78" d="M199.208 31.994a1.842 1.842 0 0 0-1.554-3.341 1.842 1.842 0 0 0 1.555 3.341" transform="translate(-139.227 -20.17)" style="fill:#d9291c;fill-rule:evenodd"/>
        <path data-name="Path 79" d="M391.28 9.655a1.842 1.842 0 1 0-1.475-2.148 1.844 1.844 0 0 0 1.476 2.148z" transform="translate(-276.045 -4.25)" style="fill:#d9291c;fill-rule:evenodd"/>
        <path data-name="Path 80" d="M222.377 22.345a1.842 1.842 0 1 0-2.366-1.09 1.843 1.843 0 0 0 2.366 1.09" transform="translate(-155.734 -13.296)" style="fill:#d9291c;fill-rule:evenodd"/>
        <path data-name="Path 81" d="M366.437 5.913a1.842 1.842 0 1 0-1.619-2.042 1.844 1.844 0 0 0 1.619 2.042" transform="translate(-258.361 -1.587)" style="fill:#d9291c;fill-rule:evenodd"/>
        <path data-name="Path 82" d="M246.259 14.636a1.842 1.842 0 1 0-2.268-1.282 1.843 1.843 0 0 0 2.268 1.282" transform="translate(-172.751 -7.803)" style="fill:#d9291c;fill-rule:evenodd"/>
        <path data-name="Path 83" d="M341.4 3.911a1.842 1.842 0 1 0-1.759-1.922 1.843 1.843 0 0 0 1.759 1.922" transform="translate(-240.536 -.161)" style="fill:#d9291c;fill-rule:evenodd"/>
        <path data-name="Path 84" d="M320.574 3.684a1.842 1.842 0 1 0-1.883-1.8 1.843 1.843 0 0 0 1.883 1.8z" transform="translate(-225.702)" style="fill:#d9291c;fill-rule:evenodd"/>
        <path data-name="Path 85" d="M270.7 8.933a1.842 1.842 0 1 0-2.154-1.466 1.843 1.843 0 0 0 2.154 1.466" transform="translate(-190.165 -3.74)" style="fill:#d9291c;fill-rule:evenodd"/>
        <path data-name="Path 86" d="M295.528 5.279A1.842 1.842 0 1 0 293.5 3.64a1.843 1.843 0 0 0 2.025 1.64" transform="translate(-207.856 -1.137)" style="fill:#d9291c;fill-rule:evenodd"/>
        <path data-name="Path 87" d="m302.943 161.134 43.064 4.85a.724.724 0 0 0 .8-.639l.368-3.27a.725.725 0 0 0-.639-.8l-43.064-4.85a.725.725 0 0 0-.8.639l-.368 3.27a.725.725 0 0 0 .639.8" transform="translate(-214.093 -110.779)" style="fill:#f5eceb"/>
        <path data-name="Path 88" d="m304.611 95.73 42.856 4.825a2.256 2.256 0 0 0 1.6-.444c.415-.317.741-.4.87-1.545.49-4.65.635-9.367-1.229-13.435-2.282-4.982-7.293-7.712-12.288-9.1q-.924-.256-1.86-.464a54.9 54.9 0 0 0-5.648-.935c-5.839-.668-12.262-.914-17.589 1.979-4.149 2.253-6.5 6.336-7.622 10.682-.923 3.562-1.671 8.142.909 8.433m.909-2.808c.518-3.893 1.275-7.823 3.586-10.816 2.439-3.16 6.423-4.5 10.228-4.889q.739-.076 1.482-.114a35.561 35.561 0 0 1 1.932-.046c.773 0 1.546.027 2.317.069a60.32 60.32 0 0 1 3.1.257c5.47.608 11.952 1.592 16.024 5.992 3.3 3.564 3.494 8.7 3.079 13.528a72.88 72.88 0 0 1-.074.792L305.51 93z" transform="translate(-214.478 -52.554)" style="fill:#f5eceb"/>
        <path data-name="Path 89" d="M302.266 213.951c8.4.98 16.807 1.884 25.2 2.829a12.113 12.113 0 0 0 7.478-1.258c4.785-2.846 7.232-13.457 3.236-13.947-14.3-1.613-28.582-3.374-42.9-4.84a2.33 2.33 0 0 0-2.42 1.953 22.88 22.88 0 0 0 .036 7.95c1.049 4.32 5.166 6.8 9.366 7.312m-6.684-14.193.015-.156 41.688 4.7-.018.151c-.316 2.7-.635 5.879-2.768 7.9-1.734 1.64-4.228 1.91-6.723 1.63-8.379-.941-16.787-1.848-25.177-2.827a9.786 9.786 0 0 1-4.768-1.675c-2.809-2.133-2.733-5.207-2.251-9.725" transform="translate(-207.172 -139.328)" style="fill:#f5eceb"/>
        <path data-name="Path 90" d="m298.473 182.187 2.419-1.547c2.075-1.3 3.745 1.6 6.178 1.717 2.534.127 4.215-1.675 5.626-.554a5.182 5.182 0 0 0 5.7.991c2.511-1.416 3.886 1.438 6.436 1.563 2.534.127 4.214-1.675 5.626-.554a5.2 5.2 0 0 0 5.253 1.207 3.506 3.506 0 0 0 .536-.266c3.29-1.947 5.418 3.858 6.851 2.258.317-.355.633-.677-.034-1.444l-2.022-2.054a4.737 4.737 0 0 0-2.665-1.329 6.633 6.633 0 0 0-3.005.63 2.609 2.609 0 0 1-3.126-.219 4.87 4.87 0 0 0-4.383-1.338 5.98 5.98 0 0 0-1.372.557 2.61 2.61 0 0 1-3.126-.22 4.873 4.873 0 0 0-4.383-1.338 6 6 0 0 0-1.372.557 2.61 2.61 0 0 1-3.126-.219 4.873 4.873 0 0 0-4.383-1.338 5.986 5.986 0 0 0-1.372.557 2.608 2.608 0 0 1-3.126-.22 4.875 4.875 0 0 0-5.836-.729l-2.428 1.553c-1.281.937.164 2.317 1.137 1.777" transform="translate(-210.22 -126.202)" style="fill:#f5eceb"/>
        <path data-name="Path 91" d="m252.69 418.483 2.6 3.185a2.1 2.1 0 0 1 .426.78 2.747 2.747 0 0 1 .022.928 1.106 1.106 0 0 1-.517.859 2.458 2.458 0 0 1-2.459-.276 1.132 1.132 0 0 1-.311-.977l.166-1.478-1.163-.131-.158 1.413q-.261 2.325 2.546 2.64t3.069-2.01a3.614 3.614 0 0 0-.044-1.258 3.287 3.287 0 0 0-.55-1.1l-2.653-3.191a1.828 1.828 0 0 1-.437-.756 2.886 2.886 0 0 1-.014-.927 1.143 1.143 0 0 1 .493-.869 2.244 2.244 0 0 1 2.342.263 1.163 1.163 0 0 1 .286.975l-.166 1.478 1.163.13.159-1.412q.261-2.326-2.414-2.626a3.1 3.1 0 0 0-2.153.372 2.184 2.184 0 0 0-.883 1.642 3.464 3.464 0 0 0 .052 1.259 3.04 3.04 0 0 0 .593 1.084" transform="translate(-177.958 -293.265)" style="fill:#f5eceb"/>
        <path data-name="Path 92" d="m285.425 417.477-5.482-.615-.112 1 2.16.242-1.1 9.8 1.163.13 1.1-9.8 2.16.242z" transform="translate(-198.181 -295.228)" style="fill:#f5eceb"/>
        <path data-name="Path 93" d="m309.856 427.216.327-2.907a2.769 2.769 0 0 0-.6-2.234 3.555 3.555 0 0 0-2.375-1.044l-3.136-.352-1.515 13.5 1.453.163.536-4.776 1.682.189 1.893 5.049 1.6.179-2-5.27a2.548 2.548 0 0 0 2.131-2.494m-1.127-3.07-.326 2.907q-.186 1.661-2.035 1.454l-1.682-.189.7-6.23 1.682.189a1.972 1.972 0 0 1 1.321.59 1.584 1.584 0 0 1 .341 1.279" transform="translate(-214.275 -297.932)" style="fill:#f5eceb"/>
        <path data-name="Path 94" d="m344.366 426.463.139-1.246-5.918-.664-1.515 13.5 6.126.688.139-1.246-4.672-.525.559-4.984 3.634.408.14-1.246-3.634-.408.536-4.776z" transform="translate(-238.72 -300.675)" style="fill:#f5eceb"/>
        <path data-name="Path 95" d="m375.007 441.046-4.672-.524.559-4.984 3.634.408.14-1.246-3.634-.408.536-4.776 4.465.5.14-1.246-5.918-.664-1.515 13.5 6.126.688z" transform="translate(-261.149 -303.192)" style="fill:#f5eceb"/>
        <path data-name="Path 96" d="m400.143 432.348 2.7.3-1.376 12.252 1.454.163 1.375-12.251 2.7.3.139-1.246-6.852-.769z" transform="translate(-283.388 -305.313)" style="fill:#f5eceb"/>
        <path data-name="Rectangle 1" transform="rotate(-83.596 110.709 27.041)" style="fill:#f5eceb" d="M0 0h1.045v14.845H0z"/>
        <path data-name="Path 97" d="m217.58 298.279.15 1.272a9.369 9.369 0 0 1 .574 2.73l.5 4.248.058.5a3.169 3.169 0 0 1-.072 1.518l.059.5a8.573 8.573 0 0 1 .3 2.512c.369.993.267 2.263.633 3.226l.029.248c-.186.556.121 1.023.176 1.488l.059.5a1.349 1.349 0 0 0 1.332.629 10.688 10.688 0 0 0 2.762-.578c.465-.055.742.164 1.24-.146a4.928 4.928 0 0 0 2.462-2.586 2.161 2.161 0 0 0 .071-1.8l-.029-.248c.441-.524.131-1.022.072-1.518.193-.494-.146-1.24-.209-1.768a2.552 2.552 0 0 0-.479-1.924c-.033-.279-.066-.558-.593-.5l-.025-.217c.189-.525-.059-.5-.338-1-.556-.186-.586-.434-.117-.992.217-.025.184-.3.406-.551.469-.558.1-1.552.26-2.326a3.11 3.11 0 0 0 .072-1.518 10.61 10.61 0 0 0-.822-2.7 4.548 4.548 0 0 0-1.477-1.586c-.217.025-.217.025-.494-.193a6.026 6.026 0 0 0-1.363-.626c-.308-.215-.8-.156-.775.092l-1.24.146c-.029-.248-.277-.218-.526-.189-.5.059-1.242.4-1.955.482a1.116 1.116 0 0 0-.713.619l.117.992a1.871 1.871 0 0 1-.1 1.269m7.227 9.554a10.273 10.273 0 0 1 .4 1.242c-.223.246.059.5.088.744l.176 1.489a4.586 4.586 0 0 1-.262 2.043s.033.279-.215.308c-.527.062-.963.365-1.707.453a1.364 1.364 0 0 1-1.2-1.368l-.058-.5a6.912 6.912 0 0 1-.019-2.293l-.033-.279c-.3-.436-.146-1.241-.2-1.737-.026-.217-.059-.5.189-.526a1.239 1.239 0 0 1 1.455-.455 1.822 1.822 0 0 1 1.392.873m-4.04-8.389c-.12-1.024.567-1.86 1.586-1.477 1.053.128 1.359.594 1.476 1.586a5.846 5.846 0 0 1 .49 2.017 4.793 4.793 0 0 1-.291 1.8c-.19.526-.965.617-1.43.672l-.279.033c-.5.058-.744.088-1.022-.131-.029-.248-.029-.248-.307-.467-.088-.744-.2-1.736-.3-2.512a3.111 3.111 0 0 1 .072-1.517" transform="translate(-154.082 -208.737)" style="fill:#f5eceb"/>
        <path data-name="Path 98" d="m264.019 278.274.011.312a5.038 5.038 0 0 1 .315 1.769l.019.53a7.681 7.681 0 0 0-.164 2.38c.008.219.269.521.278.771a.3.3 0 0 1 .018.5 1.241 1.241 0 0 0 .048 1.311l.01.281q-.359.435.028.749l.02.562a5.9 5.9 0 0 0 1.759 5.4c.281-.01.573.291.831.532a2.734 2.734 0 0 0 3.16.1c1.583-.276 2-1.6 3.017-2.953l-.02-.562a24.225 24.225 0 0 0 .112-4.659l-.249-6.833c-.3-.521-.318-1.02-.045-1.249l-.058-1.591-.029-.811-.031-.843c-.017-.469-.105-1.184-.123-1.683-.006-.156-.026-.718-.072-1.122a23.413 23.413 0 0 1 .329-2.981h.031a4.434 4.434 0 0 1 .732-1.338 2.935 2.935 0 0 1 1.72-.813l.187-.007c.345.019 1.137.334 1.324.327l.194.181c.176.524.581.51 1.087.679a.327.327 0 0 0 .437-.016c.331-.356.854-.562 1.022-1.1-.047-.437-.028-.78-.222-.961l-.55-.511c-.224-.148-.551-.542-.956-.528a3.778 3.778 0 0 0-1.993-.677h-.094a4.976 4.976 0 0 0-.656-.007 5.519 5.519 0 0 0-2.138.484 4.389 4.389 0 0 0-2.27 2.02.929.929 0 0 0-.089.128.413.413 0 0 1-.088.159 12.646 12.646 0 0 0-.715 3.525c-.01.594.022 1.468.024 2.373a1.211 1.211 0 0 0-.046.471l.123 3.37c.23.3.02.562.029.811l.359 9.891.02.562a8.455 8.455 0 0 1-.186 2.631c.008.219-.242.228-.242.228-.312.012-.55.333-.76.59l-.281.01a5.541 5.541 0 0 0-1.331-.514l-.257-.21c-.02-.562-.349-1.018-.37-1.58l-.085-2.34c-.038-1.061.236-2.1-.1-2.871l-.018-.5a10.658 10.658 0 0 0-.114-3.151 7.363 7.363 0 0 0-.1-2.621c-.018-.5.275-1.042.252-1.666-.319-.176-.338-.706-.356-1.205l-.057-1.56c-.021-.593-.247-.771-.787-1.033l-.5.017c-.811.031-1.332.33-1.294 1.36a7.311 7.311 0 0 0 .085 2.34s-.25.009-.243.2a11.555 11.555 0 0 1 .107 2.933" transform="translate(-186.907 -186.555)" style="fill:#f5eceb"/>
        <path data-name="Path 99" d="M325.323 317.794c-.225-.542-.751-.66-1.142-.99-.241-.2-.376.013-.376.013-.54.194-.918.239-1.036.765l-.2.21c-.189.022-.958.425-1.241.474a.4.4 0 0 0-.189.023 3.061 3.061 0 0 1-1.781-.676 5.217 5.217 0 0 1-.883-1.2 38.786 38.786 0 0 1-1.689-6.048 10.329 10.329 0 0 1-.382-2.55 15.039 15.039 0 0 1-.824-3.82c-.269-.263-.256-.543.025-.53.212-.521.235-1.021.744-1.216l.312.014c.3-.987.593-2 .878-2.772l.01-.218.025-.53c.292-.237.3-.486.036-.78.01-.218.01-.218.3-.455l.048-1.029c-.247-.73-.211-1.51-.435-2.083a3.343 3.343 0 0 0-1.406-2.034 4.926 4.926 0 0 0-3.259-1.183l-2.745-.127c-.312-.015-.54.194-1.115.448a1.768 1.768 0 0 0-.266 1.02c-.023.5.174.977-.057 1.216l-.857 18.527a1.107 1.107 0 0 0 .732 1.066c1.225.557 1.716.079 2.044-.937l.023-.5a1.061 1.061 0 0 1 .059-1.279l.033-.717c.048-1.029-.2-1.853-.149-2.851.01-.218.3-.486.327-.985-.258-.512.035-.748.058-1.248.243-.52.253-.738.814-.712.5.023.769.254.758.5a3.037 3.037 0 0 1 .624 2.06.982.982 0 0 0 .214.792c.228.479.2 1.041.479 1.8a9.653 9.653 0 0 0 .161 1.258 3.507 3.507 0 0 0 .177.915 41.288 41.288 0 0 0 1.862 6.368c.454.99.848 1.258.85 1.227a4.354 4.354 0 0 0 2.146 1.569 5.256 5.256 0 0 0 2.144.287c.22-.021.439-.042.628-.064.033-.03.033-.03.064-.029h.062a3.584 3.584 0 0 0 1.855-.914 1.5 1.5 0 0 0 .933-.582 6.39 6.39 0 0 1 .494-.54 1.608 1.608 0 0 0 .113-.953zM315 299.656a2.283 2.283 0 0 1-1.087 1.2 1.821 1.821 0 0 1-2.009.188c-.268-.294-.549-.307-.744-.816l.034-.749a9.532 9.532 0 0 0 .116-2.5c-.281-.012.013-.28.027-.592l.034-.748c-.259-.481.253-.739.557-1.225l.281.013a1.829 1.829 0 0 1 2.718 1.376c-.025.53.188 1.353.166 1.821z" transform="translate(-218.006 -206.128)" style="fill:#f5eceb"/>
        <path data-name="Path 100" d="M352.979 318.029c.184.276.431.309.646.59a4.547 4.547 0 0 0 2.625 1.105 4.141 4.141 0 0 0 3.862-2.038 5.914 5.914 0 0 0 .862-2.689l.831-6.252c-.118-.771-.611-1.089-1.385-1.192-.743-.1-1.487.054-2.23-.045-.493-.318-.8.113-1.12.607l-.07.526a1.2 1.2 0 0 0 .547 1.333 1.591 1.591 0 0 1 1.1 1.689l-.23 1.733a4.537 4.537 0 0 1-.577 2.443c-.349.489-1.192.912-1.615.541a1.913 1.913 0 0 1-1.571-1.689c.07-.527.1-.774.169-1.269a2.583 2.583 0 0 1-.052-1.267c.07-.526.348-.962.418-1.488a1.865 1.865 0 0 1 .2-1.516c.062-.465-.122-.741-.052-1.267.217.029-.278-.037-.246-.285a.685.685 0 0 0 .532-.213l.062-.464a2.487 2.487 0 0 1 .168-1.269 3.128 3.128 0 0 0-.052-1.266l.066-.5a2.157 2.157 0 0 0 .353-.992 2.412 2.412 0 0 1 .79-1.911.832.832 0 0 1 .815-.68c.559-.177.774.1 1.3.174a2.612 2.612 0 0 1 .936 2.2l-.095.712c-.037.279.211.311.489.348.247.033.741.35 1.238.164.526.071.78-.179.875-.891.037-.279.1-.774.14-1.052a1.581 1.581 0 0 1-.085-1.02c.033-.247.062-.464-.217-.5a.231.231 0 0 1-.135-.061q-.034-.124-.077-.243v-.007l.033-.247a7.559 7.559 0 0 0-.826-1.37 4.471 4.471 0 0 0-6.976.584c-.314.462-.881 1.174-.478 1.7l-.037.278c-.249.219-.249.219-.282.467l-.1.742a10.363 10.363 0 0 0-.366 2.755l-.033.248a7.265 7.265 0 0 0-.432 3.25 1.075 1.075 0 0 0 .113.8c.219.25-.245.188-.286.5l-.029.217c-.1.774-.2 1.516-.263 1.981a17.809 17.809 0 0 0-.252 3.557 5.9 5.9 0 0 0 1 2.432m6.905-19.713-.012-.006h.012" transform="translate(-249.261 -210.416)" style="fill:#f5eceb"/>
        <path data-name="Path 101" d="M403.117 305.717c.128-.707-.269-1.318-1.314-1.507l-5.5-1a.938.938 0 0 0-1.131.811c-.044.246-.145.8-.466.995l-.585 3.226a13.507 13.507 0 0 1-.6 3.318l-.178.983a4.732 4.732 0 0 0-.1 1.846 1.112 1.112 0 0 0-.019.2c-.3.432-.159.974-.518 1.453l-.4 2.212c-.145.8.048 1.31-.317 1.751l-.674 3.717c-.184 1.014.172 1.416 1.187 1.6a41.04 41.04 0 0 1 7.456 2.018c.917.351 2.107-2.265.913-2.983s-3.044-.787-4.767-1.321c-.814-.253-1.26-.578-1.339-1.195a3.948 3.948 0 0 1 .064-1.575l.273-1.505a6.52 6.52 0 0 1 .577-1.958c.089-.491.876-.634 1.368-.545l2.274.413a1.011 1.011 0 0 0 .932-.593 2.627 2.627 0 0 0 .312-1.721c0-.53-.349-1.211-1.428-1.052a4.605 4.605 0 0 1-1.555 0 1.588 1.588 0 0 1-1.171-1.767l.679-3.748c.1-.553.355-.729.891-.886a1.229 1.229 0 0 1 1.1-.307 5.158 5.158 0 0 0 2.55.462c.707.128 1.287-.274 1.483-1.349" transform="translate(-277.104 -214.728)" style="fill:#f5eceb"/>
        <path data-name="Path 102" d="M443.793 344.948c.208-.169.249-.546.319-.916-.1-.578-.585-.811-.892-1.22-.191-.248-.369-.071-.369-.071-.57.069-.949.028-1.18.514l-.24.16c-.188-.02-1.027.2-1.315.185a.4.4 0 0 0-.19-.02 3.062 3.062 0 0 1-1.586-1.057 5.253 5.253 0 0 1-.592-1.364 38.633 38.633 0 0 1-.3-6.273 10.282 10.282 0 0 1 .2-2.57 15.031 15.031 0 0 1 .05-3.908c-.2-.316-.129-.586.142-.512.322-.461.456-.942 1-1.019l.3.083c.508-.9 1.025-1.821 1.476-2.506l.2-.722c.338-.165.4-.406.208-.752.059-.21.059-.21.4-.376l.275-.993c-.078-.767.132-1.519.041-2.128a3.34 3.34 0 0 0-.916-2.3 4.925 4.925 0 0 0-2.913-1.88l-2.647-.736c-.3-.084-.57.069-1.186.188a1.77 1.77 0 0 0-.486.934c-.134.482-.049.992-.327 1.174l-5.415 18.555c-.143.511.839.77 1.1.865 1.289.464 1.237.311 1.784-.606.075-.271.543-1.445.713-1.916l.193-.692c.276-.993.233-1.4.5-2.365a10.324 10.324 0 0 0 .528-1.335c.13-.558.2-.722.335-1.2.353-.453.411-.663.953-.513.481.134.694.42.627.661a3.042 3.042 0 0 1 .148 2.148.978.978 0 0 0 .031.819c.115.519-.035 1.06.064 1.866a9.567 9.567 0 0 0-.124 1.262 3.516 3.516 0 0 0-.033.931 41.388 41.388 0 0 0 .394 6.624c.222 1.066.546 1.416.555 1.386a4.357 4.357 0 0 0 1.742 2.008 5.251 5.251 0 0 0 2.026.758c.219.028.438.057.626.077.039-.021.039-.021.068-.013l.06.017a3.586 3.586 0 0 0 2.013-.477 1.5 1.5 0 0 0 1.04-.359 6.3 6.3 0 0 1 .6-.416m-9.021-20.236c-.2-.346-.467-.421-.543-.961l.2-.722a9.518 9.518 0 0 0 .67-2.406c-.271-.076.075-.271.159-.572l.2-.721c-.146-.526.411-.664.816-1.07l.27.076a1.829 1.829 0 0 1 2.343 1.947c-.143.512-.119 1.361-.245 1.812l-.544 1.955a2.281 2.281 0 0 1-1.327.927 1.821 1.821 0 0 1-2-.265" transform="translate(-302.996 -222.769)" style="fill:#f5eceb"/>
        <path data-name="Path 103" d="m146.271 476.817-3.222-2.195 2.851-4.188 4.126 2.81a.607.607 0 0 0 .846-.16l.923-1.354a.609.609 0 0 0-.16-.846l-6.21-4.229a.609.609 0 0 0-.846.16l-10 14.678a.609.609 0 0 0 .16.846l1.581 1.076a.608.608 0 0 0 .846-.16l4.271-6.271 3.223 2.2a.608.608 0 0 0 .846-.161l.923-1.355a.609.609 0 0 0-.16-.846" transform="translate(-95.238 -330.417)" style="fill:#f5eceb"/>
        <path data-name="Path 104" d="m195.535 490.767-7.108-3.178a.609.609 0 0 0-.8.308l-7.247 16.213a.609.609 0 0 0 .308.8l7.358 3.289a.608.608 0 0 0 .8-.308l.669-1.5a.609.609 0 0 0-.307-.8l-5.056-2.26 2.179-4.875 3.809 1.7a.609.609 0 0 0 .8-.307l.669-1.5a.609.609 0 0 0-.307-.8l-3.81-1.7 2.068-4.625 4.807 2.149a.608.608 0 0 0 .8-.307l.669-1.5a.61.61 0 0 0-.308-.8" transform="translate(-127.707 -345.281)" style="fill:#f5eceb"/>
        <path data-name="Path 105" d="M242.4 505.509a5.663 5.663 0 0 0-4 .088 4.162 4.162 0 0 0-2.166 2.81 6.276 6.276 0 0 0-.258 2.27 5.587 5.587 0 0 0 .759 2.146l3.381 5.8a2.865 2.865 0 0 1 .41 1.116 3.934 3.934 0 0 1-.183 1.291 1.2 1.2 0 0 1-.708.856 3.465 3.465 0 0 1-3.164-.874 1.243 1.243 0 0 1-.157-1.138l.647-2.344a.609.609 0 0 0-.425-.749l-1.843-.509a.609.609 0 0 0-.749.425l-.618 2.238c-.538 1.949-.307 4.515 3.857 5.665a8.219 8.219 0 0 0 2.172.328 4.43 4.43 0 0 0 1.832-.359 4.1 4.1 0 0 0 2.213-2.851 6.511 6.511 0 0 0 .272-2.257 6.045 6.045 0 0 0-.689-2.169l-3.47-5.844a2.468 2.468 0 0 1-.42-1.05 4.17 4.17 0 0 1 .2-1.3 1.261 1.261 0 0 1 .689-.887 3.122 3.122 0 0 1 2.953.816 1.3 1.3 0 0 1 .128 1.141l-.647 2.343a.609.609 0 0 0 .425.749l1.843.509a.609.609 0 0 0 .749-.425l.619-2.239a4.189 4.189 0 0 0-.376-3.557 5.506 5.506 0 0 0-3.271-2.05" transform="translate(-165.097 -357.787)" style="fill:#f5eceb"/>
        <path data-name="Path 106" d="m303.447 516.017-8.912-1.369a.613.613 0 0 0-.453.111.607.607 0 0 0-.241.4l-.249 1.62a.609.609 0 0 0 .509.694l2.909.447-2.355 15.331a.609.609 0 0 0 .509.694l1.89.29a.624.624 0 0 0 .092.007.609.609 0 0 0 .6-.516l2.355-15.331 2.909.447a.606.606 0 0 0 .694-.509l.249-1.62a.609.609 0 0 0-.509-.694" transform="translate(-207.922 -364.477)" style="fill:#f5eceb"/>
        <path data-name="Path 107" d="m345.648 521.2-4.633-.33a.609.609 0 0 0-.65.564l-.116 1.635a.609.609 0 0 0 .564.651l.756.054-.944 13.226-.755-.053a.6.6 0 0 0-.442.147.609.609 0 0 0-.209.417l-.116 1.635a.609.609 0 0 0 .564.65l4.632.329h.044a.609.609 0 0 0 .607-.565l.117-1.635a.609.609 0 0 0-.564-.65l-.755-.054.942-13.229.755.054a.6.6 0 0 0 .651-.564l.116-1.635a.609.609 0 0 0-.564-.65" transform="translate(-240.157 -368.886)" style="fill:#f5eceb"/>
        <path data-name="Path 108" d="m389.657 522.035-1.912.031a.609.609 0 0 0-.586.484l-2.74 13.075-3.148-12.977a.585.585 0 0 0-.6-.465l-1.912.031a.609.609 0 0 0-.581.753l4.31 17.69a.609.609 0 0 0 .591.465h.01l2.868-.048a.609.609 0 0 0 .586-.484l3.722-17.822a.609.609 0 0 0-.127-.512.578.578 0 0 0-.479-.221" transform="translate(-267.818 -369.713)" style="fill:#f5eceb"/>
        <path data-name="Path 109" d="M441.349 516.87a.608.608 0 0 0-.662-.373l-2.832.458a.609.609 0 0 0-.51.563l-1.131 18.172a.608.608 0 0 0 .7.639l1.888-.306a.609.609 0 0 0 .51-.563l.232-3.708 4.191-.677 1.389 3.446a.611.611 0 0 0 .662.373l1.888-.306a.609.609 0 0 0 .467-.828zm-1.632 11.961.417-6.678 2.5 6.206z" transform="translate(-308.932 -365.785)" style="fill:#f5eceb"/>
        <path data-name="Path 110" d="m493.621 521.844-.5-1.56a.608.608 0 0 0-.766-.394l-4.181 1.341-4.738-14.769a.608.608 0 0 0-.765-.394l-1.821.584a.608.608 0 0 0-.394.765l5.424 16.91a.611.611 0 0 0 .58.423.616.616 0 0 0 .186-.029l6.582-2.111a.609.609 0 0 0 .394-.766" transform="translate(-340.246 -358.385)" style="fill:#f5eceb"/>
    </g>
</svg>
