<?xml version="1.0" encoding="UTF-8"?><svg xmlns="http://www.w3.org/2000/svg" width="1380" height="746" viewBox="0 0 1380 746"><g id="background"><g id="Group_143"><path id="Path_313" d="m504.68,26.28l6.1,1.67.62,3.44,4.93-1.67,6.27,9.08-5.97,17.04,15.21-3.8-5.51,20.95,16.24,4.73,2.44,5.18,12.86.43,6.43-15,31.03.87-2.41-15.13,5.61-12.53-2.96-5.64-2.93,2.39-3.74-3.48,3.09-6.13,6.72-3.51,14.64,3.22-.73,4.7,4.86,1.19,2.64-.33.16-6.21,5.1-2.02.1,9.59,12.03-3.61,1.55,5.39,4.98.11,3.24,7.32-4.32,6.05,1.9,11.62,7.1,8.79,6.8,2.16,2.61,4.16.74,16.04,3.64,1.31,8.34-9.32,17.69,7.98,11.9.37,19.01,10.98,20-5.6,8.84,22.85,22.95-3.57,6.28,15.53-6.11,5.36,6.8,3.5,5.47-3.35,1.76-8.49,5.88-6.46,13.01,4.42,2.95,5.09,6.04-2.74,2.33-10.12,19.66,2.3,18.22,19.36,1.09,3.5-7.23,3.17,1.25,5.86-4.4,1.97,2.71,3.32-6.58,7.7-9.85.02-2.61,7.34-4.3-1.38-8.14,7.02,1.28,4.95-3.42-2.41-2.18,2.82,2.14,8.6,5.26-.55,7.72,14.93,4.84-6.82,9.86,1.09,5.15,14.76,8.94,1,23.08,28.2,4.93,21.93,9.58,8.27,13.44,4,6.86-11.07,6.85-3.4,4.53-12.6,5.93-5.34,3.77,2.47,3.34-.47,2.75-6.67,10.67-.7,2.43-6.13,5.14,8,3.26-1.15-2.24-21.4-11.61-5.28-7.32-20.71-9.22-4.86,3.28-9.94,4.97-2.27,12.58,8.35,4.16-2.97,10.3,5.47,10.52.26,6.19,6.63,10.81-1.86-.39,5.93,13.88,11.77,13.5-2.61,1.12,18.39,2.07-4.86,4.72-.78,5.9,1.32,1.93,6.42,11.66-6.36,17.55-1.81,5.12,2.98,11.94-9.65-.52-7.61,12.18,6.86-4.2,12.72,7.65,5.56-.87,8.4-7.41.74-2.37,6.02-19.59,7.95,11.06,13.31,4.97,1.89,2.67-4.12,5.2,3.5,9.63,16.55,1.84,6.68,8.94,2.41.68,4.76,7.79,5.74,9.69-2.22,5.32-7.73,9.13-3.96,7.68,3.14-.17-8.43-7.9-.72-.07-4.14,5.94-3.64,9.77,5.47,3.85,12.5,9.37,4.44,2.55-5.26,6.08.03,2.26,7.9,11.43,1.2.76,6.92,8.14,6.25.83-3.93,4.27-1.76-3.34-3.58,18.26,2.07,15.52,9.73,5.83-2.84-1.52-4.77,6.45.94-.76,11.7,7.77,5.27-6.16,9.74,13.41,30.23,14.22,3.23,1.71,5.86,4.35,1.63,11.91-1.23,7.1,29.54,5.3,6.46-3.87,7.77,2.54,1.61-7.49.89-11.36,8.59-12.48-4.73-10.74,4.19-4.7-4.27-7.89,2.7-3.06,4.43,2.21,6.36-9.59,9.98-2.27,6.74-4.6,4.59-8.52-.24,2.55,7.85-6.36,11.61-35.3,13.68.27,4.86-6.63,6.83-.5,24.68-5.14,7.66,2.2,12.5h0l-7.86,15.54-8.74,5.41-6.21-1.88-12.79,4.53-4.94,24.97-19.59,1.66-13.52,19.15-10.95,2.15-21.71,13-14.8-9.02-9.86,9.69-6.29.29-8.13-8.99-23.9-7.57-8.01,10.64-7.59,1.06-3.25,11.62.82,1.96-8.98,6.07.56,2.94-9.27,10.73,2.34,6.88-4.8,2.52-2.18,17.71-3.93,4.24-5.02-2.32.49-13.86-4.9-13.02-19.09,3.9-14.08-8.24-7.9,2.89-5.26-15.48-12.02.6-10.32-8.66-4.02,4.52-10.35-2.99-4.62,12.22-10.67,11.34-3.5.21-3.65-4.95-1.72,4.22-43.6-2.74-19.7-9.06-9.02-7.58,1.59-4.56-4.25,1.05-3.3-5.71-4.66,1.33-3.09-6.73-6.96-.43-.16-4.91-11.35.91-4.88,6.89-12.22-.99-14.47-11.61-13.99-2.95-4.84-1.61-2.24-6.15-6.37-4.16-8.39-.05-14.27-8.95-7.9,1.98-5.26-4.61-2.88,11.7-8.71-1.31-10.23,4.85-1.33-14.82-16.72-1.41-.05-4.15-8.37-1.73-4.76,1.64-3.26,12.58,3.31,19.43-3.69,8.04,2.26,9.14-5.77,13.21,5.2,6.08-4.75,4.69-10.15-3.29-17.32-2.36-.02,12.77-12.68,9.45-3.14,7.35-.32,20.97-3.86,5.62-7.01.3-3.11-7.94-4.42,1.15-2.75-6.28-9.01,7.04-10.83-3.73-6.61-8.9-4.82,1.16,2.43,5.46-4.91,10.23-7.46-1.44-.74,6.31-5.42-.89-5.3,6.5-1.23-3.33-10.22-4.9-38.37-3.94.46-3.43-5.26-1.66,1.18-4.13-7.06-3.78,8.11-3.71,1.17-5.7-4.69-.86-5.04-8.53-9.34-2.23-7.86-8.41-8.12-7.12-10.94-1.71-4.01-15.97-5.17-1.44-5.07-14.2-12.47,1.1-7.35-19-3.74,2.54-5.59-9.29-5.39.8-8.29-.48-2.23,7.93-13.09-9-4.44-4.27-.69-17.99-20.59-19.84-9.52,1.67-10.07-6.54-1.7-10.72-11.03-8.28-4.82-12.19-9.44-6-.52-6.36.13-4.5-4.31-.91-11.04-10.76-12.37-1.99.45,5.19-19.35-5.25-4.21-14-8.67-8.1-9.51-2.86-3.85-11.9,2.39-13.18-10.36-4.72-3.73-20.24-1.43-3.25-5.61-.45-.55-18.24-13.95-5.14-7.88-15.5,13.27-8.05.5-13.17,4.81-1.65.05-5.39,9.92-13.48-1.29-4.99-13.03-6.23,5.23-7.91-1.66-2.69-5.02-3.86-5.53,2.78-.05-5.29-11.37-4.38-5.25-6.33-2.53,1.62-1.06-5.49-10.53-1.84,2.57-5.22-13.41-10.04-.67-9.18,4.01-7.13-3.03-8.65-6.62-3.88-1.38-6.86-7.76-1.05-3.21-4.38,9.05-6.69-5.85-12.81,14.56.34,2.49,13.73,9.63,1.11,1.97,3.36-4.72,3.76,9.46,7.44-3.42,6.58,2.69,5.81,7.43,1.58.3-20.23,4.53,1.68-.85-6.42,5.97-8.06,3.48-1.48-.28-7.6,6.05-.43,7.04-9.11,3.67,1.81,4.49-13.57,23.44-3.5,5.9-1.32,6.08,5.57,5.17-9.68,11.55-4.79,2.26,5.14,2.26-8.48,22.64,16.66-.89-2.2,7.82-2.41,5.98-6.97,2.64-18.12,9.92,2.76,8.7-5.21.86,3.71,10.29.8,9.86-24.76,5.79-.22,2.08,4.89,5.77-1.66.33-7.66,7.35-2.71,2-9.06,7.55,9.86,8.43,3.97,10.85-10.45-2.18-4.05,5.86-6.66-3.21-8.02,10.94-2.2,14.3-5.25,7.74,4.46,3.7-4.98,18.43,2.95,4.54-.83,1.1-4.46,3.99,1.08,3.73-15.8,5.96,1.43,9.69-8.53,7.61,4.57,2.99-1.84,31.43-14.01,1.66-7.85,27.89-3.44,2.49-9.74-16.09-5.71-1.82-3.35,4.42-1.89-.51-3.65-6.81,2.25-4.95-3,4.91-11.31-2.15-3.82,5.07-4.25,6.17,4.77,8.23.04,5.05,5.6,7.76-4.82,7.01,3.51,1.24.33Z" fill="none" stroke="#4d4d4d" stroke-linecap="round" stroke-linejoin="round" stroke-width="2"/><path id="Path_314" d="m1040.02,232l-.8,12.54-8.69-3-4.79,9.76-6.82.86-12.35,13.16,1.58,7.53-4.42,4.16,2.76,10.98-8.52,10.24-5.01,12.81,8.93,9.53-6.97,8.26,2.61,2.72-4.98,9.77,7.42,9.44,7.24-4.78-1.58,12.05,6.44-1.96,5.06,2.18.57-5.52,6.81-3.96,6.06-1.89,2.6,1.68-.63,5.4-2.1,5.86,1.64,2.31,3.61.43,4.83-3.72,2.15-3.6h2.91s3.04-9.7,3.04-9.7l5.74-.64,5.3,7.47-2.75,5.66,4.63,2.21-2.04,2.59,5.61,7.03,5.72,1.2,2.91,1.98,1.69,2.32,2.2,1.33,5.95-2.99,12.66,6.66-2.01,12.25,6.85,5.65,3.91-4.65,6.84,12.48,6.91,2.57,9.77,11.26-3.76,4.9,2.37,3.89,8.61-5.01,3.06,8.12" fill="none" stroke="#4d4d4d" stroke-linecap="round" stroke-linejoin="round" stroke-width="2"/><path id="Path_315" d="m1231.11,467.2l-7.34-1.89-.32-8.13-8.07-4.57-6.52-11.24-16.33,1.49-7.9-7.45-4.96,2.28-1.9-2.88-24.41,5.69-4-8.93-10.54.24" fill="none" stroke="#4d4d4d" stroke-linecap="round" stroke-linejoin="round" stroke-width="2"/><path id="Path_316" d="m1001.76,512.79l-4.38-14.5-18.51-8.11,3.16-11.45-2.58-3.34-2.93,6.1-3.24-8.47-5.59-1.93.1-7.68-5.93-4.29-2.07-6.92-7.68-1.27-3.35,2.11,2.18,8.94,3.8,8.48-3.68,2.3.56,6.1-6.86,5.55-12.24-8.09.95-5.02,4.92-2.48-3.22-6.12-5.04-14.07,3.64-1.07,1.23-3.58,2.5-1.2.72-1.19-17.29-1.39,1.35-5.86-1.52-3.97.45-2.48,9.21,2.53,1.94-7.44" fill="none" stroke="#4d4d4d" stroke-linecap="round" stroke-linejoin="round" stroke-width="2"/><path id="Path_317" d="m1001.76,512.79l-5.15,8.95,6.95,15.3-2.98,4.3,10.19-1.09-2.51,11.23-7.22,1.64-.42,8.05-5.64.41,1.5,4.83-1.73,2.75,6.45.78,12.33-5.58,3.83,7.43-1.44,9.45,5.57-2.24,4.87,7.1,11.7-.74,4.01,2.48-1,7.65,7.95-1.12,7.68,8.55,11.75-5.33,2.32,4.06,7.16,1.05-1.41,7.23,12.25,3.01,8.8,15.45" fill="none" stroke="#4d4d4d" stroke-linecap="round" stroke-linejoin="round" stroke-width="2"/><path id="Path_318" d="m1001.76,512.79l3.32,2.05,2.23-8.26,11.79-2.27,5.48.9,5.28-9.78,7.34-3.48-4.53-11.45,6.42-8.65,1.24,9.27,13.88-.39,4.76,6.84,7.36-8.04-2.18-5.67,23.47-.46,3.45-4.4-5.13-9.49,7.49,2.4,1.83-6.55,3.04-.41,5.43,6.93,10.6-2.2-.43-4.26,4.18-3.43-2.55-5.11,9.3-4.7.52-5.62,10.27,3.3,3.18-8.07" fill="none" stroke="#4d4d4d" stroke-linecap="round" stroke-linejoin="round" stroke-width="2"/><path id="Path_319" d="m487.62,275.1l-6.63.02-.39,9.09-7.69.29-3.41-4.33-14.01,7.85,4.95-.42,6.78,7.84-7.53,5.06,4.36,1.29,3.76,8.19,4.45.98-3.47,6.22,8.12,2.79-2.62,5.47,3.37.49-3.65,3.65,12.76,4.11.81-8.34,11.41-.02,5.37-6.99,6.79-1.1-.84-2.64,8.91-.18,1.91-1.93,10.64,6.07-.05-3.36,3.13.62-1.4-14.04,8.97-5.42.68-5.65-8.51-4.14.1-4.58-10.74-2.07-.2-6.67-12.05-2.15-1.13-4.43-22.96,8.46Z" fill="none" stroke="#4d4d4d" stroke-linecap="round" stroke-linejoin="round" stroke-width="2"/><path id="Path_320" d="m370.47,455.48l-.09-9.01-5.39.04,3.25-21.26-14.43-7.43,7.95-.13-5.61-6.57-.92-1.98-1.81-3.05,4.42-8.66,9.18-4.41,4.06,3.91,2.41-6.44,6.78-3.93-6.5-1.6,5.39-30.4,4.63.16-2.92-12.36,2.47-4.74-4.09.08-12.24-3.83.96-7.16-8.9,1.05-8.16-11.54-9.15,2.96-15.44-6.3-3.39-2.56,6.31-1.93-3-3.34-21.92,2.39,2.64-8.61,3.01.25-4.08-8" fill="none" stroke="#4d4d4d" stroke-linecap="round" stroke-linejoin="round" stroke-width="2"/><path id="Path_321" d="m329.49,610.42l-1.52-14.23,4.94-9.33,2.82,1.83,4.36-5.89-5.08-11.47,3.32-1.56-1.7-10.16,7.57,2.9,5.73-6.48,5.87.27.1-7.56,5.27-3.06-5.35-9.58,8.22-7.7-4.87-.32-1.71-5.84,6.03-.75-1.12-8.47,8.16-3.4,3.76-8.15-5.44-14.84,1.2-5.24,4.61-3.47-4.86-5.07,1.1-8.98-3.77-.67,3.33-7.73" fill="none" stroke="#4d4d4d" stroke-linecap="round" stroke-linejoin="round" stroke-width="2"/><path id="Path_322" d="m710.53,614.09l-5.03.53,2.06,5.33-5.65,5.52" fill="none" stroke="#4d4d4d" stroke-linecap="round" stroke-linejoin="round" stroke-width="2"/><path id="Path_323" d="m710.53,614.09l4.92-3.3,6.41,6.12,2.57-7.54,8.08-1.35,5.19,5.81,5.01-9.57,6.35-1.12,4.84-7.64,10.47.29,1.28-8.53,6.03,2.73,2.67-6.47,5.67-1.68,1.38,4.91,6.42,3.42,3.67-.66,2.34-5.44,9.8,4.55,5.94-1.59,5.19-3.61-2.48-4.8,14.25-2.33,2.77-3.73-1.09-3.58,4.94-.92,2.69-2.72-1.68-.88-4.78-3.59-4.53-3.15,2.09-.42h4.28l-2.07-5.44-.74-3.92.14-1.21,3.88-.17,4.24-2.16.47-5.38-7.25-2.71,3.15-11.55,7.41-1.28-4.86-6.79.36-4.16c.02-.24.22-.42.46-.42h.19c.06,0,.12,0,.18-.03l4.28-1.67.89-4.55-4.82-1.82-3.95-5.44-3.46-3.57,4.44-13.72,3.4-3.72,2.82,1.45,3.54-.24,2.45-.81-.68-3.39-4.13-2.28-2.33-2.3,2.67-2.16.69-2.91,2.44-1.47,2.31.63.7,2.79v4.61l2.52-1.46,2.03,2.57.83-5.86,1.34-7.51.94-3.53,5.98-9.37-8.73-6.99,2.99-8.86" fill="none" stroke="#4d4d4d" stroke-linecap="round" stroke-linejoin="round" stroke-width="2"/><path id="Path_324" d="m937.27,252.13l-5.93,23.72-3.79,2.27,3.69,6.39-4.57,5.15,3.96,6.65-8.74,7.5-2.52,6.54-7.93-.66,11.81,34.95-5.26,4.06-.4,3.89,8.98,21.96,4.51,5.71-2.43,6,7.64-.62,2.82,6.76-2.78,10.8-4.74,3.89,1.81,7.4-1,8.51" fill="none" stroke="#4d4d4d" stroke-linecap="round" stroke-linejoin="round" stroke-width="2"/><path id="Path_325" d="m855.93,430.52l3.26,2.5,2.06-7.24,2.97-.56,3.23,2.61,6.35-3.14,9.58,2.57,3.3-10.71,2.56-.89,10.56.91,11.04.02,21.53,6.38" fill="none" stroke="#4d4d4d" stroke-linecap="round" stroke-linejoin="round" stroke-width="2"/><path id="Path_326" d="m855.93,430.52l-8.08-8.72-14.51-4.3-5.88-9.05-16.59-4.47-1.86-3.44-6.81,2.3-6.04-8.09-9.79-1.25-4.02-5.8-4.26,10.16-3.54.23.69,3.75-7.05,1.19-4.26-3.38-8.82-5.73,2.61-7.22-2.39,2.18-8.17-6.05-6.15.47,1.15-6.52-8.05.21-5.54-6.61-8.47-3.4-13.14,2.51-3.1-5.79-14.35-9.02" fill="none" stroke="#4d4d4d" stroke-linecap="round" stroke-linejoin="round" stroke-width="2"/><path id="Path_327" d="m689.51,354.68l.02-10.09,3.81-1.33,2.66-7.25-3.45-4.05,2.4-2.63-.53-4.06-12.15-6.31-.63-3.18.16-3.37-10.71-2.11-7.1-6.41,7.15-1.38,1.74-4.85-1.4-6.61-.92-3.12,6.7-4.04" fill="none" stroke="#4d4d4d" stroke-linecap="round" stroke-linejoin="round" stroke-width="2"/><path id="Path_328" d="m886.31,269.79l-18.35-5.74-1.39,7.67-23.91,13.9,3.26,3.86-7.82,4.6,3.35,6.38-9.18-3.09-6.18,2.64-1.08-3.78-8.21,5.09-4.27-5.96-6.52-.84-5.36-5.95-6.6-.59-2.15-6.72-9.53-.3-3.96-12.57-13.58-3.45-14.73,11.62-5.8-2.66-.38-7.75-5.22-1.73-6.27,4.14-.13,5.55-9.07,4.6-7.63-3.91-11.14,2.24-3.27-4.75-17.89,14.48-3.2,1.4-2.88-4.27" fill="none" stroke="#4d4d4d" stroke-linecap="round" stroke-linejoin="round" stroke-width="2"/><path id="Path_329" d="m677.25,283.9l.44-5.2-16.81-4.78,4.8-3.47-3.48-2.04,4.02-2.22,4.51-9.71-5.92-5.54,1.06-13.82-5.19-6.67-7.86,5.51-7.8-3.95-6.33,2.39-4.42-2.97,1.89-6-6.16-2.67.94-3.02-11.29-2.97.86-3.93-4.97-3.41,7.1-3.86-1.41-4.45,3.34-.78,1.11-5.33-5.85-7.26,2.21-7.03-5.29-8.44,5.82-4.98" fill="none" stroke="#4d4d4d" stroke-linecap="round" stroke-linejoin="round" stroke-width="2"/><path id="Path_330" d="m691.79,93.34l.88,6.16,6.18,5.55-1.94,15.96,4.35,8.25-3.34,4.46,6.72,6.25-5.48,9.78,4.21,1.7-.4,4.54,7.84,9.88-8.28,2.67-3.18-3.32-10.09,2.65-6.91-8.21.69,3.57-7.45,3.33.81,10.49-8.91,1.96-2.43-7.85-1.98,3.7-5.45-5.06-13-3.16-7.97,8.82-14.06-8.2" fill="none" stroke="#4d4d4d" stroke-linecap="round" stroke-linejoin="round" stroke-width="2"/><path id="Path_331" d="m622.58,167.28l-7.85-2.43-4.95-8.78-6.56-.88-6.23-10.85-5.74-.18-1.19,3.7-6.91-7.26-4.27.45.31,8.57-11.13,4.26,2.25,4.27-5.4,5.29-13.8-5.52.04,11.88-5.11-.89-1.06,6.17-5.6,1.82.54,3.06-10.43-1.55-7.99,3.48-1.76-10.39-5.9,4.46-3.99-4.21-4.45,5.08-2.65-3.35" fill="none" stroke="#4d4d4d" stroke-linecap="round" stroke-linejoin="round" stroke-width="2"/><path id="Path_332" d="m502.75,173.49l-2.88-6.25-5.28-.82-16.34-35.87-.16-5.69,5.1-4.25-.39-8.38,6.73-5.57,2.32,1.75.07-9.35,5.42-3.63-2.84-8.91,7.48-1.46-.97,1.95,8.47,3.59,6.4-1.14,1.38-11.14,6.32-.58,2.74-4.75" fill="none" stroke="#4d4d4d" stroke-linecap="round" stroke-linejoin="round" stroke-width="2"/><path id="Path_333" d="m286.35,287.89l4.4-1.02,1.67,4.72,3.92-4.63,3.9,7.37,5.65-3.25" fill="none" stroke="#4d4d4d" stroke-linecap="round" stroke-linejoin="round" stroke-width="2"/><path id="Path_334" d="m305.87,291.08l3.17-5.53,6.91.86,1.39-7.31,3.9,1.42-.56-11.42,10.11-6.88,11.83-.21,11.49-12.83.32,4.42,14.31-.19,11.36-11.16,4.96,6.64,4.44-1.08,2.62-7.61,14.27-5.97-.91-4.28,7.29,1.14-1.8-8.62,6.6-4.31,6.46,2.04,16.44,2.95,7.23-1.02.81-3.26,11.61,4.89,4.92-7.36,16.3.77,2.21-12.06-3.35-10.12,2.94-1.86,7.14,4.31,1.28-9,9,1.02-3.37-13.21,5.57-2.73" fill="none" stroke="#4d4d4d" stroke-linecap="round" stroke-linejoin="round" stroke-width="2"/><path id="Path_335" d="m147.77,340.8l7.98,3.74,9.78-6.4,4.53,2.26,7.53-.85-1.5-4.03,19.55-3.55,7.43,4.97,6.99-3.09,7.08,3.94,5.79-5.3.42-10.28,7.44-.42-.27-3.13,13.99-6.37,4.33-6.65,1.79,3.14,9.8-.14,12.8,8.64-.05-15.23,11.3-2.96,1.24-4.11-3.98-1.16,1.18-5.93h3.45" fill="none" stroke="#4d4d4d" stroke-linecap="round" stroke-linejoin="round" stroke-width="2"/><path id="Path_336" d="m223.18,200.21l4.85,4.25,8.41-1.69,14.12,4.19-1.19,7.8,4.36,1.93,17.1-3.23,4.77,7.02-4.43,17.27,3.4.74.7,6.74-2.99,1.89,5.46,5.93-2.28,3.18,3.89,1.42,4.7,10.46-.73,3.46-3.31-.03-2.66,3.09-4.09,3.3,8.44,1.93,4.65,8" fill="none" stroke="#4d4d4d" stroke-linecap="round" stroke-linejoin="round" stroke-width="2"/><path id="Path_337" d="m710.5,614.04l-1.05-4.81-11.16-3.67.49-4.68-7.16-.39,8.49-8.19-1.38-3.41,4.23-1.69.93-9.7,5.94,1.56,3.21-4.42-2.06-4.9-6.43-2.63,1.69-4.4-4.21-1.71-8.31,4.66-11.72-3.63-2.8,4.27-16.21-13.87.57-14.46-16.42,3.49.66-2.73-12.27-5.43-4.32,5.63-5.39-1.05-2.6-7.34-4.56-1.36.48-5.08-7.82-.85-6.15-6.62-8.83,5.65-10.83-9.54-3.56-6.81,5.03-6.07-8.19-5.69,7.92-30.99-5.7-8.93,7.6-2.71-2.41-7.09" fill="none" stroke="#4d4d4d" stroke-linecap="round" stroke-linejoin="round" stroke-width="2"/><path id="Path_338" d="m586.13,444.83l-5.15,1.86-5.09-12.33-5.66,3.36-14.78-12.78-4.03,7.59-3.58.74,2.36,12.17-10.04,3.14-5.9,5.11-.07,4.63-3.08-3.95-11.05-1.26,2.36-6.24-4.79,3.9-16.1-3.84-1.48,3.63-11.07-7.31,1.12,6.14-4.9-1.94-5.91,5.35-5.33-.98,1.02-3.64-6.07-1.15-6.03-6.54-7.26,1.78-3.49,8.53-21.83,1.36-4.27-1.42-1.24-8.45-9.1,2.84-2.15,9.26-9.29-.03-3.34,5.11-7.39-1.6,1.69-2.06-6.24-3.5-4.59,4.3-3.16-4.65-10.84,3.86" fill="none" stroke="#4d4d4d" stroke-linecap="round" stroke-linejoin="round" stroke-width="2"/><path id="Path_339" d="m689.47,354.75l-14.34,9.5,3.71,7.03-2.76,3.61-7.52-2.38-2.86,7.2-12.43,1.98-6.14,5.06-2-3.51-4.88,1.74-1.94,9.05-7.11,8.62,1.89,8.16,8.75.43,2.1,11.6-13.62,3.27-1.13,6.64-8.88-5.8-11.22,4.91-14.74-2.58,1.97,6.83-8.91.45-1.2,8.01" fill="none" stroke="#4d4d4d" stroke-linecap="round" stroke-linejoin="round" stroke-width="2"/></g><g id="_2023" isolation="isolate"><g isolation="isolate"><path d="m1027.32,99.96h39.36v25.39h-68.83l-3.78-25.61c2.18-2.08,4.7-4.26,7.57-6.51,2.86-2.25,5.82-4.58,8.88-6.98,3.06-2.4,6.06-4.87,9.02-7.42,2.96-2.55,5.6-5.17,7.93-7.86,2.33-2.69,4.21-5.47,5.64-8.33,1.43-2.86,2.15-5.79,2.15-8.8,0-1.84-.42-3.41-1.27-4.69-.85-1.28-1.93-2.32-3.24-3.09-1.31-.78-2.78-1.33-4.4-1.67-1.63-.34-3.24-.51-4.84-.51-1.99,0-4,.15-6.04.44s-4,.66-5.89,1.09c-1.89.44-3.65.93-5.27,1.49-1.63.56-3,1.1-4.11,1.64l-4.66-23.28c5.43-1.84,10.79-3.09,16.08-3.75,5.29-.65,10.28-.98,14.99-.98,7.03,0,13.13.84,18.3,2.51,5.17,1.67,9.45,3.93,12.84,6.77,3.39,2.84,5.9,6.15,7.53,9.93,1.62,3.78,2.44,7.76,2.44,11.93,0,4.56-1.08,9.13-3.24,13.71-2.16,4.58-5.07,8.99-8.73,13.2-3.66,4.22-7.94,8.16-12.84,11.82-4.9,3.66-10.09,6.85-15.57,9.57Z" fill="#fff"/><path d="m1129.71,20.51c6.11,0,11.57.7,16.37,2.11,4.8,1.41,9.01,3.33,12.62,5.78s6.68,5.37,9.2,8.77c2.52,3.4,4.57,7.07,6.15,11.02,1.58,3.95,2.73,8.12,3.46,12.51s1.09,8.82,1.09,13.28-.36,8.83-1.09,13.24c-.73,4.41-1.89,8.6-3.49,12.55-1.6,3.95-3.66,7.63-6.18,11.02-2.52,3.4-5.6,6.32-9.24,8.77-3.64,2.45-7.85,4.38-12.62,5.78-4.78,1.41-10.2,2.11-16.26,2.11s-11.48-.7-16.26-2.11-8.98-3.33-12.62-5.78c-3.64-2.45-6.72-5.37-9.24-8.77-2.52-3.39-4.58-7.07-6.18-11.02-1.6-3.95-2.76-8.14-3.49-12.55-.73-4.41-1.09-8.83-1.09-13.24s.36-8.89,1.09-13.28,1.88-8.56,3.46-12.51,3.63-7.63,6.15-11.02c2.52-3.39,5.59-6.32,9.2-8.77,3.61-2.45,7.82-4.38,12.62-5.78,4.8-1.41,10.26-2.11,16.37-2.11Zm0,23.28c-2.67,0-5.01.84-7.02,2.51-2.01,1.67-3.7,3.92-5.06,6.73-1.36,2.81-2.39,6.04-3.09,9.68-.7,3.64-1.05,7.42-1.05,11.35s.34,7.57,1.02,11.2c.68,3.64,1.7,6.85,3.06,9.64,1.36,2.79,3.04,5.03,5.06,6.73,2.01,1.7,4.38,2.55,7.09,2.55s5.02-.85,7.06-2.55c2.04-1.7,3.73-3.94,5.09-6.73,1.36-2.79,2.38-6,3.06-9.64.68-3.64,1.02-7.37,1.02-11.2s-.35-7.71-1.06-11.35c-.7-3.64-1.73-6.86-3.09-9.68-1.36-2.81-3.04-5.06-5.06-6.73-2.01-1.67-4.35-2.51-7.02-2.51Z" fill="#fff"/><path d="m1223.88,99.96h39.36v25.39h-68.83l-3.78-25.61c2.18-2.08,4.7-4.26,7.57-6.51,2.86-2.25,5.82-4.58,8.88-6.98,3.06-2.4,6.06-4.87,9.02-7.42,2.96-2.55,5.6-5.17,7.93-7.86,2.33-2.69,4.21-5.47,5.64-8.33,1.43-2.86,2.15-5.79,2.15-8.8,0-1.84-.42-3.41-1.27-4.69-.85-1.28-1.93-2.32-3.24-3.09-1.31-.78-2.78-1.33-4.4-1.67-1.63-.34-3.24-.51-4.84-.51-1.99,0-4,.15-6.04.44s-4,.66-5.89,1.09c-1.89.44-3.65.93-5.27,1.49-1.63.56-3,1.1-4.11,1.64l-4.66-23.28c5.43-1.84,10.79-3.09,16.08-3.75,5.29-.65,10.28-.98,14.99-.98,7.03,0,13.13.84,18.3,2.51,5.17,1.67,9.45,3.93,12.84,6.77,3.39,2.84,5.9,6.15,7.53,9.93,1.62,3.78,2.44,7.76,2.44,11.93,0,4.56-1.08,9.13-3.24,13.71-2.16,4.58-5.07,8.99-8.73,13.2-3.66,4.22-7.94,8.16-12.84,11.82-4.9,3.66-10.09,6.85-15.57,9.57Z" fill="#fff"/><path d="m1291.56,62.49c5.87,0,10.63-.21,14.3-.62,3.66-.41,6.5-1.04,8.51-1.89s3.37-1.92,4.07-3.2,1.06-2.78,1.06-4.47c0-1.99-.41-3.69-1.24-5.09-.83-1.41-1.94-2.55-3.35-3.42-1.41-.87-3.03-1.52-4.87-1.93-1.84-.41-3.78-.62-5.82-.62s-3.97.12-6.08.36c-2.11.24-4.22.59-6.33,1.06-2.11.46-4.18,1.01-6.22,1.64-2.04.63-3.93,1.33-5.67,2.11v-19.79c4.56-2.13,9.25-3.67,14.08-4.62,4.83-.95,10.2-1.44,16.12-1.49,5.63.05,10.57.47,14.84,1.27,4.27.8,7.95,1.9,11.06,3.31,3.1,1.41,5.69,3.06,7.75,4.95s3.71,3.95,4.95,6.18c1.24,2.23,2.11,4.56,2.62,6.98.51,2.43.76,4.87.76,7.35,0,3.74-.63,6.91-1.89,9.53-1.26,2.62-2.84,4.79-4.73,6.51-1.89,1.72-3.94,3.06-6.15,4-2.21.95-4.26,1.64-6.15,2.07,2.18.39,4.51,1.04,6.98,1.96,2.47.92,4.76,2.28,6.88,4.07,2.11,1.79,3.87,4.09,5.27,6.88,1.41,2.79,2.11,6.25,2.11,10.37,0,2.76-.28,5.46-.84,8.08-.56,2.62-1.5,5.09-2.84,7.42s-3.13,4.47-5.38,6.44c-2.25,1.96-5.07,3.65-8.44,5.06-3.37,1.41-7.37,2.51-12,3.31-4.63.8-10,1.2-16.12,1.2-5.53,0-10.62-.42-15.28-1.27-4.66-.85-9.19-2.19-13.6-4.04v-20.59c1.7.78,3.56,1.48,5.6,2.11,2.04.63,4.12,1.18,6.26,1.64,2.13.46,4.27.81,6.4,1.06,2.13.24,4.15.36,6.04.36s3.83-.22,5.67-.65c1.84-.44,3.48-1.14,4.91-2.11,1.43-.97,2.57-2.23,3.42-3.78.85-1.55,1.27-3.47,1.27-5.75,0-1.94-.32-3.72-.95-5.35-.63-1.62-1.93-3.03-3.89-4.22-1.96-1.19-4.78-2.11-8.44-2.76-3.66-.66-8.55-.98-14.66-.98v-18.62Z" fill="#fff"/></g></g></g><g id="BODY"><g id="Třebíč"><path id="point" d="m763.04,426.01c13.78,0,24.96,11.17,24.96,24.96s-11.17,24.96-24.96,24.96-24.96-11.17-24.96-24.96c0-13.78,11.18-24.95,24.96-24.96m15.06,48.79c-.11,1.37-.39,2.72-.85,4.02-3.41,11.48-14.21,22.35-14.21,22.35,0,0-10.76-10.85-14.19-22.3-.47-1.31-.76-2.68-.87-4.07,8.91,6.74,21.2,6.74,30.11,0" fill="#da291c" fill-rule="evenodd"/><path id="burger" d="m776.76,450.61c0-.24-.2-.44-.44-.44h-26.55c-.25,0-.44.2-.44.44h0v2.01c0,.25.2.44.44.44h26.55c.24,0,.44-.2.44-.44v-2.01Zm-.81-3.41v-.05c-.05-2.41-.24-5.19-1.44-7.17-1.38-1.98-3.51-3.31-5.89-3.68-.3-.06-.6-.12-.89-.17-.39-.06-.78-.12-1.17-.16-.47-.05-.94-.09-1.42-.12-.64-.04-1.27-.05-1.91-.06h-.36c-.64,0-1.27.02-1.91.06-.47.03-.94.06-1.42.12-.39.04-.78.1-1.17.16-.3.05-.6.11-.89.17-2.38.37-4.51,1.7-5.89,3.68-1.2,1.98-1.39,4.76-1.44,7.17v.05h25.81Zm-12.91-13.12c3.58,0,7.47.3,10.49,2.41,2.23,1.69,3.65,4.24,3.91,7.03.32,2.23.46,5.41-1.13,5.41h-26.53c-1.59,0-1.45-3.18-1.13-5.41.26-2.79,1.68-5.33,3.91-7.03,3.02-2.11,6.91-2.41,10.49-2.41m.04,25.51h-12.91v.1c.02,2.78.18,4.66,2.04,5.77.93.49,1.97.73,3.02.69,2.59,0,5.18.01,7.77,0h.08c2.59,0,5.18,0,7.78,0,1.05.04,2.09-.2,3.02-.69,1.86-1.11,2.02-2.98,2.04-5.77v-.1h-12.83Zm-.04-1.76c4.42-.01,8.84-.01,13.26.03.73.04,1.3.63,1.34,1.35.09,1.63-.1,3.27-.57,4.84-.94,2.56-3.61,3.78-6.2,3.81-2.61.01-5.22.01-7.83,0-2.61,0-5.22,0-7.83,0-2.59-.03-5.27-1.25-6.2-3.81-.47-1.57-.67-3.2-.57-4.84.04-.73.61-1.31,1.34-1.35,4.42-.05,8.84-.04,13.26-.03m10.75-3.48c.64,0,1.25.25,1.71.69l.03.03,1.35,1.34s.05.05.07.08c.18.26.12.63-.15.81-.2.14-.46.14-.66,0-.03-.02-.05-.04-.08-.07-.45-.45-.9-.9-1.35-1.35-.38-.36-.93-.47-1.42-.28-.23.12-.44.28-.63.46-.98.8-2.4.73-3.3-.15l-.03-.03c-.51-.48-1.3-.49-1.82-.02-.09.09-.18.17-.28.25-.53.4-1.2.58-1.85.48-.54-.08-1.03-.33-1.42-.71-.42-.4-1.04-.48-1.55-.21-.18.12-.36.26-.52.42-.72.56-1.69.68-2.52.33-.29-.13-.55-.31-.78-.53-.38-.36-.94-.47-1.43-.27-.17.08-.32.18-.45.32-.97.93-2.5.92-3.46-.02,0,0-.02-.02-.03-.03-.5-.48-1.29-.49-1.81-.03-.02.02-.05.04-.05.04l-1.34,1.34-.08.07s-.06.04-.09.05c-.26.11-.56.03-.72-.19-.14-.2-.14-.47,0-.67.02-.03.04-.05.06-.08.45-.45.9-.9,1.35-1.35.59-.57,1.42-.82,2.22-.68.48.09.92.33,1.27.67.28.28.67.42,1.07.39.32-.04.61-.18.84-.41.97-.93,2.49-.92,3.45.01l.03.03h.01c.38.37.94.47,1.42.27.17-.08.32-.18.45-.32.58-.55,1.39-.79,2.18-.65.5.1.95.34,1.31.7.51.48,1.31.48,1.82.01.25-.25.54-.44.87-.58.67-.26,1.41-.22,2.05.1.23.12.45.28.64.47.38.36.94.46,1.43.27.17-.08.32-.18.46-.32.46-.44,1.07-.69,1.7-.69h.03Z" fill="#f8f7f2" fill-rule="evenodd"/><text transform="translate(733.77 520.63)" fill="#fff" font-family="Candal, Candal" font-size="18" letter-spacing="-.02em"><tspan x="0" y="0">Třebíč</tspan></text></g><g id="Praha"><path id="point-2" d="m499.31,211.68c13.78,0,24.96,11.17,24.96,24.96s-11.17,24.96-24.96,24.96-24.96-11.17-24.96-24.96c0-13.78,11.18-24.95,24.96-24.96m15.06,48.79c-.11,1.37-.39,2.72-.85,4.02-3.41,11.48-14.21,22.35-14.21,22.35,0,0-10.76-10.85-14.19-22.3-.47-1.31-.76-2.68-.87-4.07,8.91,6.74,21.2,6.74,30.11,0" fill="#da291c" fill-rule="evenodd"/><path id="burger-2" d="m513.03,236.28c0-.24-.2-.44-.44-.44h-26.55c-.25,0-.44.2-.44.44h0v2.01c0,.25.2.44.44.44h26.55c.24,0,.44-.2.44-.44v-2.01Zm-.81-3.41v-.05c-.05-2.41-.24-5.19-1.44-7.17-1.38-1.98-3.51-3.31-5.89-3.68-.3-.06-.6-.12-.89-.17-.39-.06-.78-.12-1.17-.16-.47-.05-.94-.09-1.42-.12-.64-.04-1.27-.05-1.91-.06h-.36c-.64,0-1.27.02-1.91.06-.47.03-.94.06-1.42.12-.39.04-.78.1-1.17.16-.3.05-.6.11-.89.17-2.38.37-4.51,1.7-5.89,3.68-1.2,1.98-1.39,4.76-1.44,7.17v.05h25.81Zm-12.91-13.12c3.58,0,7.47.3,10.49,2.41,2.23,1.69,3.65,4.24,3.91,7.03.32,2.23.46,5.41-1.13,5.41h-26.53c-1.59,0-1.45-3.18-1.13-5.41.26-2.79,1.68-5.33,3.91-7.03,3.02-2.11,6.91-2.41,10.49-2.41m.04,25.51h-12.91v.1c.02,2.78.18,4.66,2.04,5.77.93.49,1.97.73,3.02.69,2.59,0,5.18.01,7.77,0h.08c2.59,0,5.18,0,7.78,0,1.05.04,2.09-.2,3.02-.69,1.86-1.11,2.02-2.98,2.04-5.77v-.1h-12.83Zm-.04-1.76c4.42-.01,8.84-.01,13.26.03.73.04,1.3.63,1.34,1.35.09,1.63-.1,3.27-.57,4.84-.94,2.56-3.61,3.78-6.2,3.81-2.61.01-5.22.01-7.83,0-2.61,0-5.22,0-7.83,0-2.59-.03-5.27-1.25-6.2-3.81-.47-1.57-.67-3.2-.57-4.84.04-.73.61-1.31,1.34-1.35,4.42-.05,8.84-.04,13.26-.03m10.75-3.48c.64,0,1.25.25,1.71.69l.03.03,1.35,1.34s.05.05.07.08c.18.26.12.63-.15.81-.2.14-.46.14-.66,0-.03-.02-.05-.04-.08-.07-.45-.45-.9-.9-1.35-1.35-.38-.36-.93-.47-1.42-.28-.23.12-.44.28-.63.46-.98.8-2.4.73-3.3-.15l-.03-.03c-.51-.48-1.3-.49-1.82-.02-.09.09-.18.17-.28.25-.53.4-1.2.58-1.85.48-.54-.08-1.03-.33-1.42-.71-.42-.4-1.04-.48-1.55-.21-.18.12-.36.26-.52.42-.72.56-1.69.68-2.52.33-.29-.13-.55-.31-.78-.53-.38-.36-.94-.47-1.43-.27-.17.08-.32.18-.45.32-.97.93-2.5.92-3.46-.02,0,0-.02-.02-.03-.03-.5-.48-1.29-.49-1.81-.03-.02.02-.05.04-.05.04l-1.34,1.34-.08.07s-.06.04-.09.05c-.26.11-.56.03-.72-.19-.14-.2-.14-.47,0-.67.02-.03.04-.05.06-.08.45-.45.9-.9,1.35-1.35.59-.57,1.42-.82,2.22-.68.48.09.92.33,1.27.67.28.28.67.42,1.07.39.32-.04.61-.18.84-.41.97-.93,2.49-.92,3.45.01l.03.03h.01c.38.37.94.47,1.42.27.17-.08.32-.18.45-.32.58-.55,1.39-.79,2.18-.65.5.1.95.34,1.31.7.51.48,1.31.48,1.82.01.25-.25.54-.44.87-.58.67-.26,1.41-.22,2.05.1.23.12.45.28.64.47.38.36.94.46,1.43.27.17-.08.32-.18.46-.32.46-.44,1.07-.69,1.7-.69h.03Z" fill="#f8f7f2" fill-rule="evenodd"/><text transform="translate(470.33 306.3)" fill="#fff" font-family="Candal, Candal" font-size="18" letter-spacing="-.02em"><tspan x="0" y="0">Praha</tspan></text></g><g id="Brno"><path id="point-3" d="m911.44,501.18c13.78,0,24.96,11.17,24.96,24.96s-11.17,24.96-24.96,24.96-24.96-11.17-24.96-24.96c0-13.78,11.18-24.95,24.96-24.96m15.06,48.79c-.11,1.37-.39,2.72-.85,4.02-3.41,11.48-14.21,22.35-14.21,22.35,0,0-10.76-10.85-14.19-22.3-.47-1.31-.76-2.68-.87-4.07,8.91,6.74,21.2,6.74,30.11,0" fill="#da291c" fill-rule="evenodd"/><path id="burger-3" d="m925.16,525.78c0-.24-.2-.44-.44-.44h-26.55c-.25,0-.44.2-.44.44h0v2.01c0,.25.2.44.44.44h26.55c.24,0,.44-.2.44-.44v-2.01Zm-.81-3.41v-.05c-.05-2.41-.24-5.19-1.44-7.17-1.38-1.98-3.51-3.31-5.89-3.68-.3-.06-.6-.12-.89-.17-.39-.06-.78-.12-1.17-.16-.47-.05-.94-.09-1.42-.12-.64-.04-1.27-.05-1.91-.06h-.36c-.64,0-1.27.02-1.91.06-.47.03-.94.06-1.42.12-.39.04-.78.1-1.17.16-.3.05-.6.11-.89.17-2.38.37-4.51,1.7-5.89,3.68-1.2,1.98-1.39,4.76-1.44,7.17v.05h25.81Zm-12.91-13.12c3.58,0,7.47.3,10.49,2.41,2.23,1.69,3.65,4.24,3.91,7.03.32,2.23.46,5.41-1.13,5.41h-26.53c-1.59,0-1.45-3.18-1.13-5.41.26-2.79,1.68-5.33,3.91-7.03,3.02-2.11,6.91-2.41,10.49-2.41m.04,25.51h-12.91v.1c.02,2.78.18,4.66,2.04,5.77.93.49,1.97.73,3.02.69,2.59,0,5.18.01,7.77,0h.08c2.59,0,5.18,0,7.78,0,1.05.04,2.09-.2,3.02-.69,1.86-1.11,2.02-2.98,2.04-5.77v-.1h-12.83Zm-.04-1.76c4.42-.01,8.84-.01,13.26.03.73.04,1.3.63,1.34,1.35.09,1.63-.1,3.27-.57,4.84-.94,2.56-3.61,3.78-6.2,3.81-2.61.01-5.22.01-7.83,0-2.61,0-5.22,0-7.83,0-2.59-.03-5.27-1.25-6.2-3.81-.47-1.57-.67-3.2-.57-4.84.04-.73.61-1.31,1.34-1.35,4.42-.05,8.84-.04,13.26-.03m10.75-3.48c.64,0,1.25.25,1.71.69l.03.03,1.35,1.34s.05.05.07.08c.18.26.12.63-.15.81-.2.14-.46.14-.66,0-.03-.02-.05-.04-.08-.07-.45-.45-.9-.9-1.35-1.35-.38-.36-.93-.47-1.42-.28-.23.12-.44.28-.63.46-.98.8-2.4.73-3.3-.15l-.03-.03c-.51-.48-1.3-.49-1.82-.02-.09.09-.18.17-.28.25-.53.4-1.2.58-1.85.48-.54-.08-1.03-.33-1.42-.71-.42-.4-1.04-.48-1.55-.21-.18.12-.36.26-.52.42-.72.56-1.69.68-2.52.33-.29-.13-.55-.31-.78-.53-.38-.36-.94-.47-1.43-.27-.17.08-.32.18-.45.32-.97.93-2.5.92-3.46-.02,0,0-.02-.02-.03-.03-.5-.48-1.29-.49-1.81-.03-.02.02-.05.04-.05.04l-1.34,1.34-.08.07s-.06.04-.09.05c-.26.11-.56.03-.72-.19-.14-.2-.14-.47,0-.67.02-.03.04-.05.06-.08.45-.45.9-.9,1.35-1.35.59-.57,1.42-.82,2.22-.68.48.09.92.33,1.27.67.28.28.67.42,1.07.39.32-.04.61-.18.84-.41.97-.93,2.49-.92,3.45.01l.03.03h.01c.38.37.94.47,1.42.27.17-.08.32-.18.45-.32.58-.55,1.39-.79,2.18-.65.5.1.95.34,1.31.7.51.48,1.31.48,1.82.01.25-.25.54-.44.87-.58.67-.26,1.41-.22,2.05.1.23.12.45.28.64.47.38.36.94.46,1.43.27.17-.08.32-.18.46-.32.46-.44,1.07-.69,1.7-.69h.03Z" fill="#f8f7f2" fill-rule="evenodd"/><text transform="translate(887.47 595.8)" fill="#fff" font-family="Candal, Candal" font-size="18" letter-spacing="-.02em"><tspan x="0" y="0">Brno</tspan></text></g></g></svg>