<svg xmlns="http://www.w3.org/2000/svg" width="30.214" height="28.2" viewBox="0 0 30.214 28.2">
    <path d="M39.951 38.477a9.781 9.781 0 0 0-1.8-1.567.8.8 0 0 1 .006.126 1.007 1.007 0 1 1-1.429-.919 12.755 12.755 0 0 0-4.74-1.076 1.042 1.042 0 0 1 .12.485 1.007 1.007 0 0 1-2.014 0 1.042 1.042 0 0 1 .12-.485 12.785 12.785 0 0 0-4.74 1.076 1.009 1.009 0 1 1-1.429.919.844.844 0 0 1 .006-.126 9.577 9.577 0 0 0-1.8 1.567 10.453 10.453 0 0 0-1.706 2.587h21.112a10.636 10.636 0 0 0-1.706-2.587zm3.424 5.608H18.839a1.829 1.829 0 0 1-1.832-1.832 1.678 1.678 0 0 1 .038-.353c.334-1.322 2.908-9.9 14.062-9.9s13.729 8.58 14.062 9.9a1.345 1.345 0 0 1 .038.352 1.829 1.829 0 0 1-1.832 1.834zM23.05 57.178h16.114a3.03 3.03 0 0 0 2.851-2.014H20.2a3.03 3.03 0 0 0 2.85 2.014zm-6.043-3.021a2.012 2.012 0 0 1 2.014-2.014h24.172a2.012 2.012 0 0 1 2.014 2.014 6.044 6.044 0 0 1-6.043 6.043H23.05a6.044 6.044 0 0 1-6.043-6.043zM16 48.114a2.012 2.012 0 0 1 2.014-2.014H44.2a2.014 2.014 0 0 1 0 4.029H18.014A2.012 2.012 0 0 1 16 48.114z" transform="translate(-16 -32)" style="fill:#d9291c"/>
</svg>
