<?xml version="1.0" encoding="UTF-8"?><svg id="a" xmlns="http://www.w3.org/2000/svg" viewBox="0 0 237 22"><g id="b"><g id="c"><path id="d" d="m216.83,21.01c-5.37-.06-10.43-2.56-13.74-6.79-2.27-3.27-6.76-4.09-10.03-1.82-.71.49-1.33,1.11-1.82,1.82-5.8,7.59-16.65,9.04-24.24,3.24-1.22-.93-2.31-2.02-3.24-3.24-2.27-3.27-6.76-4.09-10.03-1.82-.71.49-1.33,1.11-1.82,1.82-5.8,7.59-16.65,9.04-24.24,3.24-1.22-.93-2.31-2.02-3.24-3.24-2.27-3.27-6.76-4.09-10.03-1.82-.71.49-1.33,1.11-1.82,1.82-5.8,7.59-16.65,9.04-24.24,3.24-1.22-.93-2.31-2.02-3.24-3.24-2.27-3.27-6.76-4.09-10.03-1.82-.71.49-1.33,1.11-1.82,1.82-3.31,4.23-8.36,6.73-13.74,6.79h0c-5.37-.06-10.43-2.56-13.74-6.79-1.41-1.88-3.58-3.02-5.93-3.1-2.34.08-4.52,1.22-5.93,3.1-3.31,4.23-8.36,6.73-13.74,6.79-5.38-.06-10.43-2.56-13.74-6.79-1.4-1.88-3.58-3.02-5.93-3.1V.99c5.37.06,10.43,2.56,13.74,6.79,1.41,1.88,3.58,3.02,5.93,3.1,2.34-.08,4.52-1.22,5.93-3.1C31.9.2,42.75-1.25,50.34,4.54c1.22.93,2.31,2.02,3.24,3.24,2.27,3.27,6.76,4.09,10.03,1.82.71-.49,1.33-1.11,1.82-1.82,3.31-4.23,8.36-6.73,13.74-6.79h0c5.37.06,10.43,2.56,13.74,6.79,2.27,3.27,6.76,4.09,10.03,1.82.71-.49,1.33-1.11,1.82-1.82,3.31-4.23,8.36-6.73,13.74-6.79h0c5.37.06,10.43,2.56,13.74,6.79,2.27,3.27,6.76,4.09,10.03,1.82.71-.49,1.33-1.11,1.82-1.82,5.8-7.59,16.65-9.04,24.24-3.24,1.22.93,2.31,2.02,3.24,3.24,2.27,3.27,6.76,4.09,10.03,1.82.71-.49,1.33-1.11,1.82-1.82,5.8-7.59,16.65-9.04,24.24-3.24,1.22.93,2.31,2.02,3.24,3.24,2.27,3.27,6.76,4.09,10.03,1.82.71-.49,1.33-1.11,1.82-1.82,3.31-4.23,8.36-6.73,13.74-6.79v10.12c-2.34.08-4.52,1.22-5.93,3.1-3.31,4.23-8.36,6.73-13.74,6.79" fill="#d9291c"/></g></g></svg>